<?xml version="1.0" encoding="utf-8"?>
<!-- Generator: Adobe Illustrator 25.4.5, SVG Export Plug-In . SVG Version: 6.00 Build 0)  -->
<svg version="1.1" xmlns="http://www.w3.org/2000/svg" xmlns:xlink="http://www.w3.org/1999/xlink" x="0px" y="0px"
	 viewBox="0 0 1280 1024" style="enable-background:new 0 0 1280 1024;" xml:space="preserve">
<style type="text/css">
	.st0{fill:#B5B5D6;}
	.st1{fill:#5E61AA;}
	.st2{fill:#154C84;}
</style>
<g id="top_x5F_slice_x5F_R">
	<path class="st0" d="M745.68,385.12v-30.69c-12.93-4.07-26.54-6.63-40.63-7.39h-1.77C720.2,356.27,734.72,369.37,745.68,385.12z"/>
</g>
<g id="top_x5F_slice_x5F_L">
	<path class="st1" d="M585.71,347.78h46.13v45.15C620.74,374.11,604.79,358.49,585.71,347.78z"/>
</g>
<g id="bottom_x5F_slice">
	<path class="st1" d="M632.55,513.62v46.13h-45.15C606.22,548.64,621.84,532.69,632.55,513.62z"/>
</g>
<g id="top_x5F_right_x5F_outside">
	<path class="st0" d="M762.55,360.79v84.08h84.46C830.3,407.43,800.09,377.33,762.55,360.79"/>
</g>
<g id="top_x5F_right_x5F_inside">
	<path class="st1" d="M650.29,347.04v97.83h97.83C748.13,390.84,704.33,347.04,650.29,347.04"/>
</g>
<g id="top_x5F_inside1">
	<path class="st2" d="M632.55,444.87h-97.83v-97.83C588.75,347.04,632.55,390.84,632.55,444.87z"/>
</g>
<g id="top_x5F_outside">
	<rect id="top_x5F_left" x="419.14" y="348.93" class="st2" width="97.83" height="97.83"/>
</g>
<g id="mid_x5F_outside_00000143607525456631928830000004620356504278660269_">
	<path class="st0" d="M853.5,461.91h-88.95c8.86,13.34,14.04,29.33,14.04,46.55c0,18.47-5.96,35.55-16.04,49.44v3.91h91.1
		c4.95-15.69,7.63-32.39,7.63-49.73C861.28,494.58,858.54,477.74,853.5,461.91"/>
</g>
<g id="mid_x5F_inright">
	<path class="st1" d="M748.13,461.91h-97.83v97.83C704.33,559.75,748.13,515.94,748.13,461.91"/>
</g>
<g id="mid_x5F_inleft1">
	<path class="st2" d="M631.81,461.91h-97.83v97.83C588,559.75,631.81,515.94,631.81,461.91z"/>
</g>
<g id="mid_x5F_outside">
	<rect id="mid_x5F_left" x="419.14" y="461.66" class="st2" width="97.83" height="97.83"/>
</g>
<g id="bottom_x5F_right">
	<path class="st0" d="M762.55,578.67v84.71c37.75-16.64,68.09-46.97,84.74-84.71H762.55z"/>
</g>
<g id="bottom_x5F_rmid">
	<path class="st0" d="M694.29,592.75c-16.13,0-31.19-4.53-44-12.39v90.57c14.51,4.17,29.83,6.45,45.68,6.45
		c17.32,0,34.01-2.68,49.7-7.62v-91.09C731.46,589.64,713.64,592.75,694.29,592.75z"/>
</g>
<g id="bottom_x5F_lmid">
	<rect x="533.84" y="578.73" class="st1" width="97.83" height="97.83"/>
</g>
<g id="bottom_x5F_left">
	<rect id="b_x5F_left" x="419.14" y="578.73" class="st2" width="97.83" height="97.83"/>
</g>
</svg>
