<?xml version="1.0" encoding="utf-8"?>
<!-- Generator: Adobe Illustrator 25.4.5, SVG Export Plug-In . SVG Version: 6.00 Build 0)  -->
<svg version="1.1" id="Layer_1" xmlns="http://www.w3.org/2000/svg" xmlns:xlink="http://www.w3.org/1999/xlink" x="0px" y="0px"
	 viewBox="0 0 612 517.3" style="enable-background:new 0 0 612 517.3;" xml:space="preserve">
<style type="text/css">
	.st0{fill:#FFFFFF;}
	.st1{fill:#164C85;}
	.st2{fill:#5F61AC;}
	.st3{fill:#B6B7D8;}
	.st4{fill:none;stroke:#000000;stroke-width:3;stroke-miterlimit:10;}
	.st5{fill:none;stroke:#FFFFFF;stroke-width:3;stroke-miterlimit:10;}
	.st6{fill:url(#SVGID_1_);}
</style>
<rect x="-0.32" y="-1.26" width="611.75" height="520.08"/>
<rect x="2191.29" y="-1.26" width="611.75" height="520.08"/>
<g>
	<rect x="84.47" y="323.05" class="st0" width="97.83" height="97.83"/>
	<rect x="84.47" y="205.98" class="st0" width="97.83" height="97.83"/>
	<rect x="84.47" y="93.25" class="st0" width="97.83" height="97.83"/>
	<rect x="199.17" y="323.05" class="st0" width="97.83" height="97.83"/>
	<path class="st0" d="M297.14,206.23H199.3v97.83C253.34,304.07,297.14,260.27,297.14,206.23z"/>
	<path class="st0" d="M413.46,206.23h-97.83v97.83C369.66,304.07,413.46,260.27,413.46,206.23"/>
	<path class="st0" d="M315.63,91.36v97.83h97.83C413.46,135.16,369.66,91.36,315.63,91.36"/>
	<path class="st0" d="M297.88,189.19h-97.83V91.36C254.08,91.36,297.88,135.16,297.88,189.19z"/>
	<path class="st0" d="M411.01,129.44V98.74c-12.93-4.07-26.54-6.63-40.63-7.39h-1.77C385.54,100.59,400.05,113.69,411.01,129.44z"/>
	<path class="st0" d="M359.63,337.07c-16.13,0-31.19-4.53-44-12.39v90.57c14.51,4.17,29.83,6.45,45.68,6.45
		c17.32,0,34.01-2.68,49.7-7.62V323C396.79,333.96,378.97,337.07,359.63,337.07z"/>
	<path class="st0" d="M427.88,323v84.71c37.75-16.63,68.09-46.97,84.74-84.71H427.88z"/>
	<path class="st0" d="M427.88,105.11v84.08h84.46C495.63,151.75,465.42,121.65,427.88,105.11"/>
	<path class="st0" d="M518.83,206.23h-88.95c8.86,13.34,14.04,29.33,14.04,46.55c0,18.47-5.96,35.55-16.04,49.44v3.91h91.1
		c4.95-15.69,7.63-32.39,7.63-49.73C526.61,238.9,523.87,222.06,518.83,206.23"/>
	<path class="st0" d="M251.04,92.1h46.13v45.15C286.07,118.43,270.12,102.81,251.04,92.1z"/>
	<path class="st0" d="M297.88,257.94v46.13h-45.15C271.55,292.96,287.18,277.02,297.88,257.94z"/>
</g>
<g>
	<rect x="-614.26" y="323.05" width="97.83" height="97.83"/>
	<rect x="-614.26" y="205.98" width="97.83" height="97.83"/>
	<rect x="-614.26" y="93.25" width="97.83" height="97.83"/>
	<rect x="-499.56" y="323.05" width="97.83" height="97.83"/>
	<path d="M-401.59,206.23h-97.83v97.83C-445.39,304.07-401.59,260.27-401.59,206.23z"/>
	<path d="M-285.27,206.23h-97.83v97.83C-329.07,304.07-285.27,260.27-285.27,206.23"/>
	<path d="M-383.1,91.36v97.83h97.83C-285.27,135.16-329.07,91.36-383.1,91.36"/>
	<path d="M-400.85,189.19h-97.83V91.36C-444.65,91.36-400.85,135.16-400.85,189.19z"/>
	<path d="M-287.72,129.44V98.74c-12.93-4.07-26.54-6.63-40.63-7.39h-1.77C-313.19,100.59-298.68,113.69-287.72,129.44z"/>
	<path d="M-339.1,337.07c-16.13,0-31.19-4.53-44-12.39v90.57c14.51,4.17,29.83,6.45,45.68,6.45c17.32,0,34.01-2.68,49.7-7.62V323
		C-301.94,333.96-319.75,337.07-339.1,337.07z"/>
	<path d="M-270.85,323v84.71c37.75-16.63,68.09-46.97,84.74-84.71H-270.85z"/>
	<path d="M-270.85,105.11v84.08h84.46C-203.1,151.75-233.31,121.65-270.85,105.11"/>
	<path d="M-179.9,206.23h-88.95c8.86,13.34,14.04,29.33,14.04,46.55c0,18.47-5.96,35.55-16.04,49.44v3.91h91.1
		c4.95-15.69,7.63-32.39,7.63-49.73C-172.12,238.9-174.86,222.06-179.9,206.23"/>
	<path d="M-447.69,92.1h46.13v45.15C-412.66,118.43-428.61,102.81-447.69,92.1z"/>
	<path d="M-400.85,257.94v46.13H-446C-427.18,292.96-411.55,277.02-400.85,257.94z"/>
</g>
<g>
	<rect x="-1312.99" y="323.05" class="st1" width="97.83" height="97.83"/>
	<rect x="-1312.99" y="205.98" class="st1" width="97.83" height="97.83"/>
	<rect x="-1312.99" y="93.25" class="st1" width="97.83" height="97.83"/>
	<rect x="-1198.29" y="323.05" class="st2" width="97.83" height="97.83"/>
	<path class="st1" d="M-1100.32,206.23h-97.83v97.83C-1144.12,304.07-1100.32,260.27-1100.32,206.23z"/>
	<path class="st2" d="M-984,206.23h-97.83v97.83C-1027.8,304.07-984,260.27-984,206.23"/>
	<path class="st2" d="M-1081.83,91.36v97.83H-984C-984,135.16-1027.8,91.36-1081.83,91.36"/>
	<path class="st1" d="M-1099.58,189.19h-97.83V91.36C-1143.38,91.36-1099.58,135.16-1099.58,189.19z"/>
	<path class="st3" d="M-986.44,129.44V98.74c-12.93-4.07-26.54-6.63-40.63-7.39h-1.77C-1011.92,100.59-997.41,113.69-986.44,129.44z
		"/>
	<path class="st3" d="M-1037.83,337.07c-16.13,0-31.19-4.53-44-12.39v90.57c14.51,4.17,29.83,6.45,45.68,6.45
		c17.32,0,34.01-2.68,49.7-7.62V323C-1000.67,333.96-1018.48,337.07-1037.83,337.07z"/>
	<path class="st3" d="M-969.58,323v84.71c37.75-16.63,68.09-46.97,84.74-84.71H-969.58z"/>
	<path class="st3" d="M-969.58,105.11v84.08h84.46C-901.83,151.75-932.04,121.65-969.58,105.11"/>
	<path class="st3" d="M-878.63,206.23h-88.95c8.86,13.34,14.04,29.33,14.04,46.55c0,18.47-5.96,35.55-16.04,49.44v3.91h91.1
		c4.95-15.69,7.63-32.39,7.63-49.73C-870.85,238.9-873.59,222.06-878.63,206.23"/>
	<path class="st2" d="M-1146.41,92.1h46.13v45.15C-1111.39,118.43-1127.34,102.81-1146.41,92.1z"/>
	<path class="st2" d="M-1099.58,257.94v46.13h-45.16C-1125.91,292.96-1110.28,277.02-1099.58,257.94z"/>
</g>
<rect x="2314.81" y="48.1" class="st0" width="360.76" height="353.86"/>
<g>
	<path d="M2426.76,100.59h4.47l11.58,41.24h0.13l11.77-41.24h5.52l11.77,41.24h0.13l11.58-41.24h4.47l-13.55,46.57h-5.33
		l-11.77-41.44h-0.13l-11.77,41.44h-5.33L2426.76,100.59z"/>
	<path d="M2493.78,97.43h3.95v24.66h0.13c0.79-1.67,2.1-3.1,3.95-4.31c1.84-1.21,3.99-1.81,6.45-1.81c2.37,0,4.3,0.37,5.79,1.12
		c1.49,0.74,2.66,1.72,3.52,2.93c0.85,1.21,1.45,2.6,1.78,4.18c0.33,1.58,0.49,3.2,0.49,4.87v18.09h-3.95v-17.89
		c0-1.23-0.11-2.42-0.33-3.58c-0.22-1.16-0.6-2.2-1.15-3.12c-0.55-0.92-1.32-1.65-2.3-2.2c-0.99-0.55-2.27-0.82-3.85-0.82
		c-1.45,0-2.82,0.25-4.11,0.76c-1.29,0.51-2.41,1.27-3.35,2.3c-0.94,1.03-1.69,2.32-2.24,3.88c-0.55,1.56-0.82,3.39-0.82,5.49v15.19
		h-3.95V97.43z"/>
	<path d="M2553.96,134.39c0,1.49,0.01,2.83,0.03,4.01c0.02,1.18,0.06,2.28,0.1,3.29c0.04,1.01,0.1,1.95,0.16,2.83
		s0.16,1.75,0.3,2.63h-3.68c-0.26-1.49-0.39-3.13-0.39-4.93h-0.13c-1.14,1.97-2.56,3.42-4.24,4.34c-1.69,0.92-3.83,1.38-6.41,1.38
		c-1.32,0-2.61-0.16-3.88-0.49c-1.27-0.33-2.41-0.85-3.42-1.58s-1.83-1.66-2.47-2.8c-0.63-1.14-0.95-2.52-0.95-4.14
		c0-2.32,0.59-4.17,1.78-5.52c1.18-1.36,2.64-2.38,4.38-3.06c1.73-0.68,3.57-1.12,5.52-1.32c1.95-0.2,3.67-0.3,5.16-0.3h4.61v-1.84
		c0-2.63-0.81-4.51-2.43-5.66c-1.62-1.14-3.66-1.71-6.12-1.71c-3.51,0-6.6,1.14-9.27,3.42l-2.3-2.7c1.45-1.4,3.24-2.46,5.39-3.19
		c2.15-0.72,4.21-1.09,6.18-1.09c3.68,0,6.62,0.87,8.81,2.6s3.29,4.53,3.29,8.39V134.39z M2546.07,131.89
		c-1.67,0-3.28,0.11-4.83,0.33c-1.56,0.22-2.96,0.59-4.21,1.12c-1.25,0.53-2.25,1.23-2.99,2.11c-0.75,0.88-1.12,1.97-1.12,3.29
		c0,0.92,0.21,1.74,0.62,2.47c0.41,0.72,0.95,1.32,1.61,1.78c0.66,0.46,1.39,0.81,2.2,1.05c0.81,0.24,1.63,0.36,2.46,0.36
		c2.11,0,3.84-0.3,5.2-0.92s2.44-1.41,3.26-2.4c0.81-0.99,1.37-2.1,1.68-3.35c0.3-1.25,0.46-2.51,0.46-3.78v-2.04H2546.07z"/>
	<path d="M2579.35,120.32h-8.68v19.8c0,1.36,0.37,2.41,1.12,3.16c0.74,0.74,1.78,1.12,3.09,1.12c0.74,0,1.5-0.1,2.27-0.29
		s1.5-0.45,2.2-0.76l0.33,3.55c-0.75,0.26-1.6,0.5-2.57,0.72c-0.96,0.22-1.82,0.33-2.56,0.33c-1.4,0-2.61-0.21-3.62-0.62
		c-1.01-0.41-1.82-0.98-2.43-1.68c-0.61-0.7-1.06-1.52-1.35-2.47c-0.29-0.94-0.43-1.96-0.43-3.06v-19.8h-6.58v-3.55h6.58v-8.75h3.95
		v8.75h8.68V120.32z"/>
	<path d="M2589.41,100.59h4.8l-5.06,15h-3.88L2589.41,100.59z"/>
	<path d="M2596.32,139.39c0.83,1.62,2.06,2.86,3.68,3.72c1.62,0.85,3.33,1.28,5.13,1.28c0.83,0,1.67-0.13,2.5-0.39
		c0.83-0.26,1.58-0.63,2.24-1.12c0.66-0.48,1.19-1.06,1.61-1.74c0.42-0.68,0.63-1.46,0.63-2.33c0-1.4-0.45-2.46-1.35-3.16
		c-0.9-0.7-2.01-1.25-3.32-1.65c-1.32-0.39-2.76-0.73-4.34-1.02c-1.58-0.28-3.02-0.72-4.34-1.32c-1.32-0.59-2.42-1.41-3.32-2.47
		c-0.9-1.05-1.35-2.54-1.35-4.47c0-1.49,0.31-2.78,0.92-3.88c0.61-1.1,1.41-2.01,2.4-2.73s2.09-1.26,3.32-1.61
		c1.23-0.35,2.48-0.52,3.75-0.52c2.5,0,4.66,0.46,6.48,1.38c1.82,0.92,3.23,2.37,4.24,4.34l-3.55,2.1c-0.75-1.4-1.68-2.46-2.8-3.19
		c-1.12-0.72-2.58-1.09-4.37-1.09c-0.7,0-1.44,0.11-2.2,0.33c-0.77,0.22-1.46,0.53-2.07,0.92s-1.13,0.9-1.55,1.51
		c-0.42,0.61-0.62,1.32-0.62,2.11c0,1.36,0.45,2.37,1.35,3.02c0.9,0.66,2.01,1.17,3.32,1.55c1.32,0.37,2.76,0.69,4.34,0.95
		c1.58,0.26,3.03,0.69,4.34,1.28c1.32,0.59,2.42,1.45,3.32,2.56c0.9,1.12,1.35,2.71,1.35,4.77c0,1.58-0.3,2.95-0.89,4.11
		c-0.59,1.16-1.4,2.14-2.43,2.93c-1.03,0.79-2.2,1.38-3.52,1.78c-1.32,0.39-2.7,0.59-4.15,0.59c-2.63,0-5.03-0.5-7.2-1.51
		c-2.17-1.01-3.85-2.56-5.03-4.67L2596.32,139.39z"/>
	<path d="M2431.37,174.89c0-0.83,0.28-1.54,0.85-2.11c0.57-0.57,1.27-0.85,2.1-0.85c0.83,0,1.54,0.29,2.11,0.85
		c0.57,0.57,0.85,1.27,0.85,2.11c0,0.83-0.29,1.54-0.85,2.1c-0.57,0.57-1.27,0.85-2.11,0.85c-0.83,0-1.54-0.28-2.1-0.85
		C2431.65,176.42,2431.37,175.72,2431.37,174.89z M2432.35,186.92h3.95v30.39h-3.95V186.92z"/>
	<path d="M2447.48,195.47c0-0.57-0.02-1.26-0.06-2.07c-0.05-0.81-0.08-1.63-0.1-2.47c-0.02-0.83-0.06-1.61-0.1-2.33
		c-0.04-0.72-0.06-1.28-0.06-1.68h3.95c0.04,1.14,0.08,2.24,0.1,3.29c0.02,1.05,0.08,1.73,0.17,2.04h0.2
		c0.79-1.67,2.1-3.1,3.95-4.31c1.84-1.21,3.99-1.81,6.45-1.81c2.37,0,4.3,0.37,5.79,1.12c1.49,0.74,2.66,1.72,3.52,2.93
		c0.85,1.21,1.45,2.6,1.78,4.18c0.33,1.58,0.49,3.2,0.49,4.87v18.09h-3.95v-17.89c0-1.23-0.11-2.42-0.33-3.58
		c-0.22-1.16-0.6-2.2-1.15-3.12c-0.55-0.92-1.32-1.65-2.3-2.2c-0.99-0.55-2.27-0.82-3.85-0.82c-1.45,0-2.82,0.25-4.11,0.76
		c-1.29,0.51-2.41,1.27-3.35,2.3c-0.94,1.03-1.69,2.32-2.24,3.88c-0.55,1.56-0.82,3.39-0.82,5.49v15.19h-3.95V195.47z"/>
	<path d="M2509.7,226.71c-0.75,1.97-1.78,3.53-3.09,4.67c-1.32,1.14-3.07,1.71-5.26,1.71c-0.66,0-1.32-0.06-1.97-0.17
		c-0.66-0.11-1.29-0.25-1.91-0.43l0.39-3.68c0.57,0.17,1.15,0.34,1.74,0.49c0.59,0.15,1.2,0.23,1.81,0.23c0.7,0,1.33-0.16,1.88-0.46
		c0.55-0.31,1.02-0.7,1.41-1.18c0.39-0.48,0.73-1.02,1.02-1.61c0.28-0.59,0.54-1.19,0.76-1.81l2.76-7.04l-12.36-30.52h4.41
		l10.06,25.58l9.8-25.58h4.21L2509.7,226.71z"/>
	<path d="M2529.89,202.12c0-2.32,0.39-4.46,1.18-6.41c0.79-1.95,1.88-3.64,3.29-5.07c1.4-1.42,3.09-2.53,5.06-3.32
		c1.97-0.79,4.12-1.18,6.45-1.18c2.32,0,4.46,0.39,6.41,1.18c1.95,0.79,3.64,1.9,5.06,3.32c1.42,1.43,2.53,3.11,3.32,5.07
		c0.79,1.95,1.18,4.09,1.18,6.41s-0.39,4.46-1.18,6.41c-0.79,1.95-1.9,3.64-3.32,5.06c-1.43,1.43-3.11,2.53-5.06,3.32
		c-1.95,0.79-4.09,1.18-6.41,1.18c-2.33,0-4.47-0.39-6.45-1.18c-1.97-0.79-3.66-1.9-5.06-3.32c-1.4-1.43-2.5-3.11-3.29-5.06
		C2530.28,206.58,2529.89,204.44,2529.89,202.12z M2533.84,202.12c0,1.71,0.27,3.32,0.82,4.83c0.55,1.51,1.35,2.83,2.4,3.94
		c1.05,1.12,2.32,2.01,3.81,2.66c1.49,0.66,3.16,0.99,5,0.99c1.84,0,3.51-0.33,5-0.99c1.49-0.66,2.76-1.55,3.82-2.66
		c1.05-1.12,1.85-2.43,2.4-3.94c0.55-1.51,0.82-3.12,0.82-4.83c0-1.71-0.27-3.32-0.82-4.84c-0.55-1.51-1.35-2.83-2.4-3.95
		c-1.05-1.12-2.33-2.01-3.82-2.66c-1.49-0.66-3.16-0.99-5-0.99c-1.84,0-3.51,0.33-5,0.99c-1.49,0.66-2.76,1.55-3.81,2.66
		c-1.05,1.12-1.85,2.43-2.4,3.95C2534.11,198.8,2533.84,200.41,2533.84,202.12z"/>
	<path d="M2596.38,208.76c0,0.57,0.02,1.26,0.07,2.07c0.04,0.81,0.07,1.63,0.1,2.47c0.02,0.83,0.05,1.61,0.1,2.34
		c0.04,0.72,0.06,1.28,0.06,1.68h-3.95c-0.04-1.14-0.08-2.24-0.1-3.29c-0.02-1.05-0.08-1.73-0.16-2.04h-0.2
		c-0.79,1.67-2.1,3.1-3.95,4.31c-1.84,1.21-3.99,1.81-6.45,1.81c-2.37,0-4.31-0.37-5.82-1.12c-1.51-0.74-2.7-1.72-3.55-2.93
		c-0.85-1.21-1.44-2.6-1.74-4.18c-0.31-1.58-0.46-3.2-0.46-4.87v-18.09h3.95v17.89c0,1.23,0.11,2.42,0.33,3.58
		c0.22,1.16,0.6,2.2,1.15,3.12c0.55,0.92,1.32,1.66,2.3,2.2c0.99,0.55,2.27,0.82,3.85,0.82c1.45,0,2.82-0.25,4.11-0.76
		c1.29-0.5,2.41-1.27,3.35-2.3c0.94-1.03,1.69-2.32,2.24-3.88c0.55-1.56,0.82-3.39,0.82-5.49v-15.19h3.95V208.76z"/>
	<path d="M2607.23,195.47c0-0.57-0.02-1.26-0.06-2.07c-0.05-0.81-0.08-1.63-0.1-2.47c-0.02-0.83-0.06-1.61-0.1-2.33
		c-0.04-0.72-0.06-1.28-0.06-1.68h3.95c0.04,1.14,0.08,2.24,0.1,3.29c0.02,1.05,0.08,1.73,0.17,2.04c1.01-1.8,2.3-3.27,3.88-4.41
		c1.58-1.14,3.51-1.71,5.79-1.71c0.39,0,0.78,0.03,1.15,0.1c0.37,0.07,0.76,0.14,1.15,0.23l-0.46,3.88
		c-0.53-0.17-1.03-0.26-1.51-0.26c-1.71,0-3.19,0.27-4.44,0.82c-1.25,0.55-2.28,1.3-3.09,2.27c-0.81,0.96-1.41,2.1-1.81,3.39
		c-0.4,1.29-0.59,2.69-0.59,4.18v16.57h-3.95V195.47z"/>
	<path d="M2433.93,260.63h-6.31v-3.55h6.31v-9.93c0-1.97,0.3-3.61,0.89-4.9c0.59-1.29,1.33-2.33,2.2-3.12
		c0.88-0.79,1.85-1.35,2.93-1.68c1.07-0.33,2.09-0.49,3.06-0.49c1.84,0,3.35,0.26,4.54,0.79l-0.79,3.42
		c-0.88-0.44-2.06-0.66-3.55-0.66c-3.55,0-5.33,2.7-5.33,8.09v8.48h7.1v3.55h-7.1v26.83h-3.95V260.63z"/>
	<path d="M2449.45,272.27c0-2.32,0.39-4.46,1.18-6.41c0.79-1.95,1.88-3.64,3.29-5.07c1.4-1.42,3.09-2.53,5.06-3.32
		c1.97-0.79,4.12-1.18,6.45-1.18c2.32,0,4.46,0.39,6.41,1.18c1.95,0.79,3.64,1.9,5.06,3.32c1.42,1.43,2.53,3.11,3.32,5.07
		c0.79,1.95,1.18,4.09,1.18,6.41s-0.39,4.46-1.18,6.41c-0.79,1.95-1.9,3.64-3.32,5.06c-1.43,1.43-3.11,2.53-5.06,3.32
		c-1.95,0.79-4.09,1.18-6.41,1.18c-2.33,0-4.47-0.39-6.45-1.18c-1.97-0.79-3.66-1.9-5.06-3.32c-1.4-1.43-2.5-3.11-3.29-5.06
		C2449.85,276.73,2449.45,274.59,2449.45,272.27z M2453.4,272.27c0,1.71,0.27,3.32,0.82,4.83c0.55,1.51,1.35,2.83,2.4,3.95
		c1.05,1.12,2.32,2.01,3.81,2.66c1.49,0.66,3.16,0.99,5,0.99c1.84,0,3.51-0.33,5-0.99c1.49-0.66,2.76-1.55,3.82-2.66
		c1.05-1.12,1.85-2.43,2.4-3.95c0.55-1.51,0.82-3.12,0.82-4.83c0-1.71-0.27-3.32-0.82-4.84c-0.55-1.51-1.35-2.83-2.4-3.95
		c-1.05-1.12-2.33-2.01-3.82-2.66c-1.49-0.66-3.16-0.99-5-0.99c-1.84,0-3.51,0.33-5,0.99c-1.49,0.66-2.76,1.55-3.81,2.66
		c-1.05,1.12-1.85,2.43-2.4,3.95C2453.67,268.95,2453.4,270.56,2453.4,272.27z"/>
	<path d="M2488.52,272.27c0-2.32,0.39-4.46,1.18-6.41c0.79-1.95,1.88-3.64,3.29-5.07c1.4-1.42,3.09-2.53,5.06-3.32
		c1.97-0.79,4.12-1.18,6.45-1.18c2.32,0,4.46,0.39,6.41,1.18c1.95,0.79,3.64,1.9,5.06,3.32c1.42,1.43,2.53,3.11,3.32,5.07
		c0.79,1.95,1.18,4.09,1.18,6.41s-0.39,4.46-1.18,6.41c-0.79,1.95-1.9,3.64-3.32,5.06c-1.43,1.43-3.11,2.53-5.06,3.32
		c-1.95,0.79-4.09,1.18-6.41,1.18c-2.33,0-4.47-0.39-6.45-1.18c-1.97-0.79-3.66-1.9-5.06-3.32c-1.4-1.43-2.5-3.11-3.29-5.06
		C2488.91,276.73,2488.52,274.59,2488.52,272.27z M2492.47,272.27c0,1.71,0.27,3.32,0.82,4.83c0.55,1.51,1.35,2.83,2.4,3.95
		c1.05,1.12,2.32,2.01,3.81,2.66c1.49,0.66,3.16,0.99,5,0.99c1.84,0,3.51-0.33,5-0.99c1.49-0.66,2.76-1.55,3.82-2.66
		s1.85-2.43,2.4-3.95c0.55-1.51,0.82-3.12,0.82-4.83c0-1.71-0.27-3.32-0.82-4.84c-0.55-1.51-1.35-2.83-2.4-3.95
		c-1.05-1.12-2.33-2.01-3.82-2.66c-1.49-0.66-3.16-0.99-5-0.99c-1.84,0-3.51,0.33-5,0.99c-1.49,0.66-2.76,1.55-3.81,2.66
		c-1.05,1.12-1.85,2.43-2.4,3.95C2492.74,268.95,2492.47,270.56,2492.47,272.27z"/>
	<path d="M2555.87,282.14h-0.13c-0.62,1.05-1.38,1.96-2.3,2.73c-0.92,0.77-1.92,1.4-2.99,1.91c-1.08,0.5-2.2,0.88-3.39,1.12
		s-2.35,0.36-3.49,0.36c-2.33,0-4.47-0.39-6.45-1.18c-1.97-0.79-3.66-1.9-5.06-3.32c-1.4-1.43-2.5-3.11-3.29-5.06
		c-0.79-1.95-1.18-4.09-1.18-6.41s0.39-4.46,1.18-6.41c0.79-1.95,1.88-3.64,3.29-5.07c1.4-1.42,3.09-2.53,5.06-3.32
		c1.97-0.79,4.12-1.18,6.45-1.18c1.14,0,2.3,0.12,3.49,0.36c1.18,0.24,2.31,0.61,3.39,1.12c1.07,0.5,2.07,1.14,2.99,1.91
		c0.92,0.77,1.69,1.68,2.3,2.73h0.13v-24.66h3.95v49.72h-3.95V282.14z M2556.26,272.27c0-1.71-0.33-3.32-0.99-4.84
		c-0.66-1.51-1.56-2.83-2.7-3.95c-1.14-1.12-2.48-2.01-4.01-2.66c-1.54-0.66-3.2-0.99-5-0.99c-1.84,0-3.51,0.33-5,0.99
		c-1.49,0.66-2.76,1.55-3.81,2.66c-1.05,1.12-1.85,2.43-2.4,3.95c-0.55,1.51-0.82,3.12-0.82,4.84c0,1.71,0.27,3.32,0.82,4.83
		c0.55,1.51,1.35,2.83,2.4,3.95c1.05,1.12,2.32,2.01,3.81,2.66c1.49,0.66,3.16,0.99,5,0.99c1.8,0,3.46-0.33,5-0.99
		c1.54-0.66,2.87-1.55,4.01-2.66c1.14-1.12,2.04-2.43,2.7-3.95C2555.93,275.59,2556.26,273.98,2556.26,272.27z"/>
	<path d="M2577.7,269.7c0-1.45,0.25-2.72,0.76-3.82c0.5-1.1,1.14-2.08,1.91-2.96c0.77-0.88,1.59-1.71,2.47-2.5
		c0.88-0.79,1.7-1.63,2.47-2.53c0.77-0.9,1.4-1.88,1.91-2.93c0.5-1.05,0.76-2.3,0.76-3.75c0-2.37-0.68-4.29-2.04-5.75
		c-1.36-1.47-3.24-2.2-5.66-2.2c-2.33,0-4.22,0.7-5.69,2.1c-1.47,1.4-2.44,3.24-2.93,5.52l-4.28-0.52c0.61-3.38,2.08-6,4.41-7.86
		c2.32-1.86,5.13-2.79,8.42-2.79c1.71,0,3.31,0.25,4.8,0.76c1.49,0.5,2.77,1.24,3.85,2.2c1.07,0.96,1.92,2.15,2.53,3.55
		c0.61,1.4,0.92,3,0.92,4.8c0,1.84-0.26,3.4-0.79,4.67c-0.53,1.27-1.18,2.39-1.97,3.35c-0.79,0.96-1.65,1.85-2.57,2.66
		c-0.92,0.81-1.78,1.65-2.56,2.5c-0.79,0.85-1.45,1.82-1.97,2.89c-0.53,1.07-0.79,2.38-0.79,3.91v4.21h-3.95V269.7z M2576.58,284.7
		c0-0.88,0.31-1.62,0.92-2.23c0.61-0.61,1.36-0.92,2.24-0.92c0.88,0,1.62,0.31,2.24,0.92c0.61,0.61,0.92,1.36,0.92,2.23
		c0,0.88-0.31,1.62-0.92,2.24c-0.61,0.61-1.36,0.92-2.24,0.92c-0.88,0-1.62-0.31-2.24-0.92
		C2576.89,286.32,2576.58,285.58,2576.58,284.7z"/>
	<path class="st0" d="M2430.84,435.92h3.95v5.33h0.13c0.61-1.05,1.38-1.96,2.3-2.73c0.92-0.77,1.92-1.4,2.99-1.91
		c1.07-0.5,2.2-0.88,3.39-1.12c1.18-0.24,2.35-0.36,3.49-0.36c2.32,0,4.46,0.39,6.41,1.18c1.95,0.79,3.64,1.9,5.06,3.32
		c1.42,1.43,2.53,3.11,3.32,5.07c0.79,1.95,1.18,4.09,1.18,6.41c0,2.32-0.39,4.46-1.18,6.41c-0.79,1.95-1.9,3.64-3.32,5.06
		c-1.43,1.43-3.11,2.53-5.06,3.32c-1.95,0.79-4.09,1.18-6.41,1.18c-1.14,0-2.3-0.12-3.49-0.36c-1.18-0.24-2.31-0.61-3.39-1.12
		c-1.07-0.5-2.07-1.14-2.99-1.91c-0.92-0.77-1.69-1.68-2.3-2.73h-0.13v20.32h-3.95V435.92z M2434.39,451.12
		c0,1.71,0.33,3.32,0.99,4.83c0.66,1.51,1.56,2.83,2.69,3.95c1.14,1.12,2.48,2.01,4.01,2.66c1.54,0.66,3.2,0.99,5,0.99
		c1.84,0,3.51-0.33,5-0.99c1.49-0.66,2.76-1.55,3.82-2.66c1.05-1.12,1.85-2.43,2.4-3.95c0.55-1.51,0.82-3.12,0.82-4.83
		c0-1.71-0.27-3.32-0.82-4.84c-0.55-1.51-1.35-2.83-2.4-3.95c-1.05-1.12-2.33-2.01-3.82-2.66c-1.49-0.66-3.16-0.99-5-0.99
		c-1.8,0-3.46,0.33-5,0.99c-1.54,0.66-2.87,1.55-4.01,2.66c-1.14,1.12-2.04,2.43-2.69,3.95
		C2434.72,447.8,2434.39,449.41,2434.39,451.12z"/>
	<path class="st0" d="M2471.03,435.92h3.95v5.33h0.13c0.61-1.05,1.38-1.96,2.3-2.73c0.92-0.77,1.92-1.4,2.99-1.91
		c1.07-0.5,2.2-0.88,3.39-1.12c1.18-0.24,2.35-0.36,3.49-0.36c2.32,0,4.46,0.39,6.41,1.18c1.95,0.79,3.64,1.9,5.06,3.32
		c1.42,1.43,2.53,3.11,3.32,5.07c0.79,1.95,1.18,4.09,1.18,6.41c0,2.32-0.39,4.46-1.18,6.41c-0.79,1.95-1.9,3.64-3.32,5.06
		c-1.43,1.43-3.11,2.53-5.06,3.32c-1.95,0.79-4.09,1.18-6.41,1.18c-1.14,0-2.3-0.12-3.49-0.36c-1.18-0.24-2.31-0.61-3.39-1.12
		c-1.07-0.5-2.07-1.14-2.99-1.91c-0.92-0.77-1.69-1.68-2.3-2.73h-0.13v20.32h-3.95V435.92z M2474.58,451.12
		c0,1.71,0.33,3.32,0.99,4.83c0.66,1.51,1.56,2.83,2.69,3.95c1.14,1.12,2.48,2.01,4.01,2.66c1.54,0.66,3.2,0.99,5,0.99
		c1.84,0,3.51-0.33,5-0.99c1.49-0.66,2.76-1.55,3.82-2.66s1.85-2.43,2.4-3.95c0.55-1.51,0.82-3.12,0.82-4.83
		c0-1.71-0.27-3.32-0.82-4.84c-0.55-1.51-1.35-2.83-2.4-3.95c-1.05-1.12-2.33-2.01-3.82-2.66c-1.49-0.66-3.16-0.99-5-0.99
		c-1.8,0-3.46,0.33-5,0.99c-1.54,0.66-2.87,1.55-4.01,2.66c-1.14,1.12-2.04,2.43-2.69,3.95
		C2474.91,447.8,2474.58,449.41,2474.58,451.12z"/>
	<path class="st0" d="M2510.35,451.12c0-2.32,0.39-4.46,1.18-6.41c0.79-1.95,1.88-3.64,3.29-5.07c1.4-1.42,3.09-2.53,5.06-3.32
		c1.97-0.79,4.12-1.18,6.45-1.18c2.32,0,4.46,0.39,6.41,1.18c1.95,0.79,3.64,1.9,5.06,3.32c1.42,1.43,2.53,3.11,3.32,5.07
		c0.79,1.95,1.18,4.09,1.18,6.41c0,2.32-0.39,4.46-1.18,6.41c-0.79,1.95-1.9,3.64-3.32,5.06c-1.43,1.43-3.11,2.53-5.06,3.32
		c-1.95,0.79-4.09,1.18-6.41,1.18c-2.33,0-4.47-0.39-6.45-1.18c-1.97-0.79-3.66-1.9-5.06-3.32c-1.4-1.43-2.5-3.11-3.29-5.06
		C2510.75,455.58,2510.35,453.44,2510.35,451.12z M2514.3,451.12c0,1.71,0.27,3.32,0.82,4.83c0.55,1.51,1.35,2.83,2.4,3.95
		c1.05,1.12,2.32,2.01,3.81,2.66c1.49,0.66,3.16,0.99,5,0.99c1.84,0,3.51-0.33,5-0.99c1.49-0.66,2.76-1.55,3.82-2.66
		s1.85-2.43,2.4-3.95c0.55-1.51,0.82-3.12,0.82-4.83c0-1.71-0.27-3.32-0.82-4.84c-0.55-1.51-1.35-2.83-2.4-3.95
		c-1.05-1.12-2.33-2.01-3.82-2.66c-1.49-0.66-3.16-0.99-5-0.99c-1.84,0-3.51,0.33-5,0.99c-1.49,0.66-2.76,1.55-3.81,2.66
		c-1.05,1.12-1.85,2.43-2.4,3.95C2514.57,447.8,2514.3,449.41,2514.3,451.12z"/>
	<path class="st0" d="M2551.26,463.55c0-0.88,0.3-1.62,0.92-2.23c0.61-0.61,1.36-0.92,2.24-0.92c0.88,0,1.62,0.31,2.24,0.92
		s0.92,1.36,0.92,2.23c0,0.88-0.31,1.62-0.92,2.24c-0.61,0.61-1.36,0.92-2.24,0.92c-0.88,0-1.62-0.31-2.24-0.92
		C2551.57,465.17,2551.26,464.43,2551.26,463.55z"/>
	<path class="st0" d="M2593.68,461.84c-1.49,1.8-3.18,3.12-5.06,3.98c-1.89,0.85-3.93,1.28-6.12,1.28c-2.33,0-4.47-0.39-6.45-1.18
		c-1.97-0.79-3.66-1.9-5.06-3.32c-1.4-1.43-2.5-3.11-3.29-5.06c-0.79-1.95-1.18-4.09-1.18-6.41c0-2.32,0.39-4.46,1.18-6.41
		c0.79-1.95,1.88-3.64,3.29-5.07c1.4-1.42,3.09-2.53,5.06-3.32c1.97-0.79,4.12-1.18,6.45-1.18c2.24,0,4.31,0.46,6.22,1.38
		c1.91,0.92,3.61,2.21,5.1,3.88l-3.16,2.37c-1.14-1.27-2.39-2.27-3.75-2.99c-1.36-0.72-2.83-1.08-4.41-1.08
		c-1.84,0-3.51,0.33-5,0.99c-1.49,0.66-2.76,1.55-3.81,2.66c-1.05,1.12-1.85,2.43-2.4,3.95c-0.55,1.51-0.82,3.12-0.82,4.84
		c0,1.71,0.27,3.32,0.82,4.83c0.55,1.51,1.35,2.83,2.4,3.95c1.05,1.12,2.32,2.01,3.81,2.66c1.49,0.66,3.16,0.99,5,0.99
		c1.67,0,3.19-0.38,4.57-1.15c1.38-0.77,2.57-1.79,3.58-3.06L2593.68,461.84z"/>
	<path class="st0" d="M2623.48,453.55c0,1.49,0.01,2.83,0.03,4.01c0.02,1.18,0.06,2.28,0.1,3.29s0.1,1.95,0.16,2.83
		c0.07,0.88,0.16,1.75,0.3,2.63h-3.68c-0.26-1.49-0.39-3.13-0.39-4.93h-0.13c-1.14,1.97-2.56,3.42-4.24,4.34
		c-1.69,0.92-3.83,1.38-6.41,1.38c-1.32,0-2.61-0.16-3.88-0.49c-1.27-0.33-2.41-0.85-3.42-1.58c-1.01-0.72-1.83-1.66-2.47-2.8
		c-0.63-1.14-0.95-2.52-0.95-4.14c0-2.32,0.59-4.17,1.78-5.52c1.18-1.36,2.64-2.38,4.38-3.06c1.73-0.68,3.57-1.12,5.52-1.32
		c1.95-0.2,3.67-0.3,5.16-0.3h4.61v-1.84c0-2.63-0.81-4.51-2.43-5.66c-1.62-1.14-3.66-1.71-6.12-1.71c-3.51,0-6.6,1.14-9.27,3.42
		l-2.3-2.7c1.45-1.4,3.24-2.46,5.39-3.19c2.15-0.72,4.21-1.09,6.18-1.09c3.68,0,6.62,0.87,8.81,2.6s3.29,4.53,3.29,8.39V453.55z
		 M2615.59,451.05c-1.67,0-3.28,0.11-4.83,0.33c-1.56,0.22-2.96,0.59-4.21,1.12c-1.25,0.53-2.25,1.23-2.99,2.11
		c-0.75,0.88-1.12,1.97-1.12,3.29c0,0.92,0.21,1.74,0.62,2.47c0.42,0.72,0.95,1.32,1.61,1.78c0.66,0.46,1.39,0.81,2.2,1.05
		c0.81,0.24,1.63,0.36,2.46,0.36c2.11,0,3.84-0.3,5.2-0.92c1.36-0.61,2.44-1.41,3.25-2.4c0.81-0.99,1.37-2.1,1.68-3.35
		c0.3-1.25,0.46-2.51,0.46-3.78v-2.04H2615.59z"/>
</g>
<rect x="2356.9" y="43.21" class="st4" width="319.97" height="313.85"/>
<rect x="1583.65" y="48.1" width="360.76" height="353.86"/>
<g>
	<path class="st0" d="M1695.6,100.59h4.47l11.58,41.24h0.13l11.77-41.24h5.52l11.77,41.24h0.13l11.58-41.24h4.47l-13.55,46.57h-5.33
		l-11.77-41.44h-0.13l-11.77,41.44h-5.33L1695.6,100.59z"/>
	<path class="st0" d="M1762.62,97.43h3.95v24.66h0.13c0.79-1.67,2.1-3.1,3.95-4.31c1.84-1.21,3.99-1.81,6.45-1.81
		c2.37,0,4.3,0.37,5.79,1.12c1.49,0.74,2.66,1.72,3.52,2.93c0.85,1.21,1.45,2.6,1.78,4.18c0.33,1.58,0.49,3.2,0.49,4.87v18.09h-3.95
		v-17.89c0-1.23-0.11-2.42-0.33-3.58c-0.22-1.16-0.6-2.2-1.15-3.12c-0.55-0.92-1.32-1.65-2.3-2.2c-0.99-0.55-2.27-0.82-3.85-0.82
		c-1.45,0-2.82,0.25-4.11,0.76c-1.29,0.51-2.41,1.27-3.35,2.3c-0.94,1.03-1.69,2.32-2.24,3.88c-0.55,1.56-0.82,3.39-0.82,5.49v15.19
		h-3.95V97.43z"/>
	<path class="st0" d="M1822.8,134.39c0,1.49,0.01,2.83,0.03,4.01c0.02,1.18,0.06,2.28,0.1,3.29c0.04,1.01,0.1,1.95,0.16,2.83
		s0.16,1.75,0.3,2.63h-3.68c-0.26-1.49-0.39-3.13-0.39-4.93h-0.13c-1.14,1.97-2.56,3.42-4.24,4.34c-1.69,0.92-3.83,1.38-6.41,1.38
		c-1.32,0-2.61-0.16-3.88-0.49c-1.27-0.33-2.41-0.85-3.42-1.58c-1.01-0.72-1.83-1.66-2.47-2.8c-0.63-1.14-0.95-2.52-0.95-4.14
		c0-2.32,0.59-4.17,1.78-5.52c1.18-1.36,2.64-2.38,4.38-3.06c1.73-0.68,3.57-1.12,5.52-1.32c1.95-0.2,3.67-0.3,5.16-0.3h4.61v-1.84
		c0-2.63-0.81-4.51-2.43-5.66c-1.62-1.14-3.66-1.71-6.12-1.71c-3.51,0-6.6,1.14-9.27,3.42l-2.3-2.7c1.45-1.4,3.24-2.46,5.39-3.19
		c2.15-0.72,4.21-1.09,6.18-1.09c3.68,0,6.62,0.87,8.81,2.6s3.29,4.53,3.29,8.39V134.39z M1814.91,131.89
		c-1.67,0-3.28,0.11-4.83,0.33c-1.56,0.22-2.96,0.59-4.21,1.12c-1.25,0.53-2.25,1.23-2.99,2.11c-0.75,0.88-1.12,1.97-1.12,3.29
		c0,0.92,0.21,1.74,0.62,2.47c0.41,0.72,0.95,1.32,1.61,1.78c0.66,0.46,1.39,0.81,2.2,1.05c0.81,0.24,1.63,0.36,2.46,0.36
		c2.11,0,3.84-0.3,5.2-0.92c1.36-0.61,2.44-1.41,3.26-2.4c0.81-0.99,1.37-2.1,1.68-3.35c0.3-1.25,0.46-2.51,0.46-3.78v-2.04H1814.91
		z"/>
	<path class="st0" d="M1848.19,120.32h-8.68v19.8c0,1.36,0.37,2.41,1.12,3.16c0.74,0.74,1.78,1.12,3.09,1.12
		c0.74,0,1.5-0.1,2.27-0.29s1.5-0.45,2.2-0.76l0.33,3.55c-0.75,0.26-1.6,0.5-2.57,0.72c-0.96,0.22-1.82,0.33-2.56,0.33
		c-1.4,0-2.61-0.21-3.62-0.62c-1.01-0.41-1.82-0.98-2.43-1.68c-0.61-0.7-1.06-1.52-1.35-2.47c-0.29-0.94-0.43-1.96-0.43-3.06v-19.8
		h-6.58v-3.55h6.58v-8.75h3.95v8.75h8.68V120.32z"/>
	<path class="st0" d="M1858.25,100.59h4.8l-5.06,15h-3.88L1858.25,100.59z"/>
	<path class="st0" d="M1865.16,139.39c0.83,1.62,2.06,2.86,3.68,3.72c1.62,0.85,3.33,1.28,5.13,1.28c0.83,0,1.67-0.13,2.5-0.39
		c0.83-0.26,1.58-0.63,2.24-1.12c0.66-0.48,1.19-1.06,1.61-1.74c0.42-0.68,0.63-1.46,0.63-2.33c0-1.4-0.45-2.46-1.35-3.16
		c-0.9-0.7-2.01-1.25-3.32-1.65c-1.32-0.39-2.76-0.73-4.34-1.02c-1.58-0.28-3.02-0.72-4.34-1.32s-2.42-1.41-3.32-2.47
		c-0.9-1.05-1.35-2.54-1.35-4.47c0-1.49,0.31-2.78,0.92-3.88c0.61-1.1,1.41-2.01,2.4-2.73s2.09-1.26,3.32-1.61
		c1.23-0.35,2.48-0.52,3.75-0.52c2.5,0,4.66,0.46,6.48,1.38c1.82,0.92,3.23,2.37,4.24,4.34l-3.55,2.1c-0.75-1.4-1.68-2.46-2.8-3.19
		c-1.12-0.72-2.58-1.09-4.37-1.09c-0.7,0-1.44,0.11-2.2,0.33c-0.77,0.22-1.46,0.53-2.07,0.92c-0.61,0.39-1.13,0.9-1.55,1.51
		c-0.42,0.61-0.62,1.32-0.62,2.11c0,1.36,0.45,2.37,1.35,3.02c0.9,0.66,2.01,1.17,3.32,1.55c1.32,0.37,2.76,0.69,4.34,0.95
		c1.58,0.26,3.03,0.69,4.34,1.28c1.32,0.59,2.42,1.45,3.32,2.56c0.9,1.12,1.35,2.71,1.35,4.77c0,1.58-0.3,2.95-0.89,4.11
		c-0.59,1.16-1.4,2.14-2.43,2.93c-1.03,0.79-2.2,1.38-3.52,1.78c-1.32,0.39-2.7,0.59-4.15,0.59c-2.63,0-5.03-0.5-7.2-1.51
		s-3.85-2.56-5.03-4.67L1865.16,139.39z"/>
	<path class="st0" d="M1700.21,174.89c0-0.83,0.28-1.54,0.85-2.11c0.57-0.57,1.27-0.85,2.1-0.85c0.83,0,1.54,0.29,2.11,0.85
		c0.57,0.57,0.85,1.27,0.85,2.11c0,0.83-0.29,1.54-0.85,2.1c-0.57,0.57-1.27,0.85-2.11,0.85c-0.83,0-1.54-0.28-2.1-0.85
		C1700.49,176.42,1700.21,175.72,1700.21,174.89z M1701.19,186.92h3.95v30.39h-3.95V186.92z"/>
	<path class="st0" d="M1716.32,195.47c0-0.57-0.02-1.26-0.06-2.07c-0.05-0.81-0.08-1.63-0.1-2.47c-0.02-0.83-0.06-1.61-0.1-2.33
		c-0.04-0.72-0.06-1.28-0.06-1.68h3.95c0.04,1.14,0.08,2.24,0.1,3.29c0.02,1.05,0.08,1.73,0.17,2.04h0.2
		c0.79-1.67,2.1-3.1,3.95-4.31c1.84-1.21,3.99-1.81,6.45-1.81c2.37,0,4.3,0.37,5.79,1.12c1.49,0.74,2.66,1.72,3.52,2.93
		c0.85,1.21,1.45,2.6,1.78,4.18c0.33,1.58,0.49,3.2,0.49,4.87v18.09h-3.95v-17.89c0-1.23-0.11-2.42-0.33-3.58
		c-0.22-1.16-0.6-2.2-1.15-3.12c-0.55-0.92-1.32-1.65-2.3-2.2c-0.99-0.55-2.27-0.82-3.85-0.82c-1.45,0-2.82,0.25-4.11,0.76
		c-1.29,0.51-2.41,1.27-3.35,2.3c-0.94,1.03-1.69,2.32-2.24,3.88c-0.55,1.56-0.82,3.39-0.82,5.49v15.19h-3.95V195.47z"/>
	<path class="st0" d="M1778.54,226.71c-0.75,1.97-1.78,3.53-3.09,4.67c-1.32,1.14-3.07,1.71-5.26,1.71c-0.66,0-1.32-0.06-1.97-0.17
		s-1.29-0.25-1.91-0.43l0.39-3.68c0.57,0.17,1.15,0.34,1.74,0.49c0.59,0.15,1.2,0.23,1.81,0.23c0.7,0,1.33-0.16,1.88-0.46
		c0.55-0.31,1.02-0.7,1.41-1.18c0.39-0.48,0.73-1.02,1.02-1.61c0.28-0.59,0.54-1.19,0.76-1.81l2.76-7.04l-12.36-30.52h4.41
		l10.06,25.58l9.8-25.58h4.21L1778.54,226.71z"/>
	<path class="st0" d="M1798.73,202.12c0-2.32,0.39-4.46,1.18-6.41c0.79-1.95,1.88-3.64,3.29-5.07c1.4-1.42,3.09-2.53,5.06-3.32
		c1.97-0.79,4.12-1.18,6.45-1.18c2.32,0,4.46,0.39,6.41,1.18c1.95,0.79,3.64,1.9,5.06,3.32c1.42,1.43,2.53,3.11,3.32,5.07
		c0.79,1.95,1.18,4.09,1.18,6.41s-0.39,4.46-1.18,6.41c-0.79,1.95-1.9,3.64-3.32,5.06c-1.43,1.43-3.11,2.53-5.06,3.32
		c-1.95,0.79-4.09,1.18-6.41,1.18c-2.33,0-4.47-0.39-6.45-1.18c-1.97-0.79-3.66-1.9-5.06-3.32c-1.4-1.43-2.5-3.11-3.29-5.06
		C1799.12,206.58,1798.73,204.44,1798.73,202.12z M1802.68,202.12c0,1.71,0.27,3.32,0.82,4.83c0.55,1.51,1.35,2.83,2.4,3.94
		c1.05,1.12,2.32,2.01,3.81,2.66c1.49,0.66,3.16,0.99,5,0.99c1.84,0,3.51-0.33,5-0.99c1.49-0.66,2.76-1.55,3.82-2.66
		c1.05-1.12,1.85-2.43,2.4-3.94c0.55-1.51,0.82-3.12,0.82-4.83c0-1.71-0.27-3.32-0.82-4.84c-0.55-1.51-1.35-2.83-2.4-3.95
		c-1.05-1.12-2.33-2.01-3.82-2.66c-1.49-0.66-3.16-0.99-5-0.99c-1.84,0-3.51,0.33-5,0.99c-1.49,0.66-2.76,1.55-3.81,2.66
		c-1.05,1.12-1.85,2.43-2.4,3.95C1802.95,198.8,1802.68,200.41,1802.68,202.12z"/>
	<path class="st0" d="M1865.22,208.76c0,0.57,0.02,1.26,0.07,2.07c0.04,0.81,0.07,1.63,0.1,2.47c0.02,0.83,0.05,1.61,0.1,2.34
		c0.04,0.72,0.06,1.28,0.06,1.68h-3.95c-0.04-1.14-0.08-2.24-0.1-3.29c-0.02-1.05-0.08-1.73-0.16-2.04h-0.2
		c-0.79,1.67-2.1,3.1-3.95,4.31c-1.84,1.21-3.99,1.81-6.45,1.81c-2.37,0-4.31-0.37-5.82-1.12c-1.51-0.74-2.7-1.72-3.55-2.93
		c-0.85-1.21-1.44-2.6-1.74-4.18c-0.31-1.58-0.46-3.2-0.46-4.87v-18.09h3.95v17.89c0,1.23,0.11,2.42,0.33,3.58
		c0.22,1.16,0.6,2.2,1.15,3.12c0.55,0.92,1.32,1.66,2.3,2.2c0.99,0.55,2.27,0.82,3.85,0.82c1.45,0,2.82-0.25,4.11-0.76
		c1.29-0.5,2.41-1.27,3.35-2.3c0.94-1.03,1.69-2.32,2.24-3.88c0.55-1.56,0.82-3.39,0.82-5.49v-15.19h3.95V208.76z"/>
	<path class="st0" d="M1876.07,195.47c0-0.57-0.02-1.26-0.06-2.07c-0.05-0.81-0.08-1.63-0.1-2.47c-0.02-0.83-0.06-1.61-0.1-2.33
		c-0.04-0.72-0.06-1.28-0.06-1.68h3.95c0.04,1.14,0.08,2.24,0.1,3.29c0.02,1.05,0.08,1.73,0.17,2.04c1.01-1.8,2.3-3.27,3.88-4.41
		c1.58-1.14,3.51-1.71,5.79-1.71c0.39,0,0.78,0.03,1.15,0.1c0.37,0.07,0.76,0.14,1.15,0.23l-0.46,3.88
		c-0.53-0.17-1.03-0.26-1.51-0.26c-1.71,0-3.19,0.27-4.44,0.82c-1.25,0.55-2.28,1.3-3.09,2.27c-0.81,0.96-1.41,2.1-1.81,3.39
		c-0.4,1.29-0.59,2.69-0.59,4.18v16.57h-3.95V195.47z"/>
	<path class="st0" d="M1702.77,260.63h-6.31v-3.55h6.31v-9.93c0-1.97,0.3-3.61,0.89-4.9c0.59-1.29,1.33-2.33,2.2-3.12
		c0.88-0.79,1.85-1.35,2.93-1.68c1.07-0.33,2.09-0.49,3.06-0.49c1.84,0,3.35,0.26,4.54,0.79l-0.79,3.42
		c-0.88-0.44-2.06-0.66-3.55-0.66c-3.55,0-5.33,2.7-5.33,8.09v8.48h7.1v3.55h-7.1v26.83h-3.95V260.63z"/>
	<path class="st0" d="M1718.29,272.27c0-2.32,0.39-4.46,1.18-6.41c0.79-1.95,1.88-3.64,3.29-5.07c1.4-1.42,3.09-2.53,5.06-3.32
		c1.97-0.79,4.12-1.18,6.45-1.18c2.32,0,4.46,0.39,6.41,1.18c1.95,0.79,3.64,1.9,5.06,3.32c1.42,1.43,2.53,3.11,3.32,5.07
		c0.79,1.95,1.18,4.09,1.18,6.41s-0.39,4.46-1.18,6.41c-0.79,1.95-1.9,3.64-3.32,5.06c-1.43,1.43-3.11,2.53-5.06,3.32
		c-1.95,0.79-4.09,1.18-6.41,1.18c-2.33,0-4.47-0.39-6.45-1.18c-1.97-0.79-3.66-1.9-5.06-3.32c-1.4-1.43-2.5-3.11-3.29-5.06
		C1718.69,276.73,1718.29,274.59,1718.29,272.27z M1722.24,272.27c0,1.71,0.27,3.32,0.82,4.83c0.55,1.51,1.35,2.83,2.4,3.95
		c1.05,1.12,2.32,2.01,3.81,2.66c1.49,0.66,3.16,0.99,5,0.99c1.84,0,3.51-0.33,5-0.99c1.49-0.66,2.76-1.55,3.82-2.66
		c1.05-1.12,1.85-2.43,2.4-3.95c0.55-1.51,0.82-3.12,0.82-4.83c0-1.71-0.27-3.32-0.82-4.84c-0.55-1.51-1.35-2.83-2.4-3.95
		c-1.05-1.12-2.33-2.01-3.82-2.66c-1.49-0.66-3.16-0.99-5-0.99c-1.84,0-3.51,0.33-5,0.99c-1.49,0.66-2.76,1.55-3.81,2.66
		c-1.05,1.12-1.85,2.43-2.4,3.95C1722.51,268.95,1722.24,270.56,1722.24,272.27z"/>
	<path class="st0" d="M1757.36,272.27c0-2.32,0.39-4.46,1.18-6.41c0.79-1.95,1.88-3.64,3.29-5.07c1.4-1.42,3.09-2.53,5.06-3.32
		c1.97-0.79,4.12-1.18,6.45-1.18c2.32,0,4.46,0.39,6.41,1.18c1.95,0.79,3.64,1.9,5.06,3.32c1.42,1.43,2.53,3.11,3.32,5.07
		c0.79,1.95,1.18,4.09,1.18,6.41s-0.39,4.46-1.18,6.41c-0.79,1.95-1.9,3.64-3.32,5.06c-1.43,1.43-3.11,2.53-5.06,3.32
		c-1.95,0.79-4.09,1.18-6.41,1.18c-2.33,0-4.47-0.39-6.45-1.18c-1.97-0.79-3.66-1.9-5.06-3.32c-1.4-1.43-2.5-3.11-3.29-5.06
		C1757.75,276.73,1757.36,274.59,1757.36,272.27z M1761.31,272.27c0,1.71,0.27,3.32,0.82,4.83c0.55,1.51,1.35,2.83,2.4,3.95
		c1.05,1.12,2.32,2.01,3.81,2.66c1.49,0.66,3.16,0.99,5,0.99c1.84,0,3.51-0.33,5-0.99c1.49-0.66,2.76-1.55,3.82-2.66
		c1.05-1.12,1.85-2.43,2.4-3.95c0.55-1.51,0.82-3.12,0.82-4.83c0-1.71-0.27-3.32-0.82-4.84c-0.55-1.51-1.35-2.83-2.4-3.95
		c-1.05-1.12-2.33-2.01-3.82-2.66c-1.49-0.66-3.16-0.99-5-0.99c-1.84,0-3.51,0.33-5,0.99c-1.49,0.66-2.76,1.55-3.81,2.66
		c-1.05,1.12-1.85,2.43-2.4,3.95C1761.58,268.95,1761.31,270.56,1761.31,272.27z"/>
	<path class="st0" d="M1824.71,282.14h-0.13c-0.62,1.05-1.38,1.96-2.3,2.73c-0.92,0.77-1.92,1.4-2.99,1.91
		c-1.08,0.5-2.2,0.88-3.39,1.12s-2.35,0.36-3.49,0.36c-2.33,0-4.47-0.39-6.45-1.18c-1.97-0.79-3.66-1.9-5.06-3.32
		c-1.4-1.43-2.5-3.11-3.29-5.06c-0.79-1.95-1.18-4.09-1.18-6.41s0.39-4.46,1.18-6.41c0.79-1.95,1.88-3.64,3.29-5.07
		c1.4-1.42,3.09-2.53,5.06-3.32c1.97-0.79,4.12-1.18,6.45-1.18c1.14,0,2.3,0.12,3.49,0.36c1.18,0.24,2.31,0.61,3.39,1.12
		c1.07,0.5,2.07,1.14,2.99,1.91c0.92,0.77,1.69,1.68,2.3,2.73h0.13v-24.66h3.95v49.72h-3.95V282.14z M1825.1,272.27
		c0-1.71-0.33-3.32-0.99-4.84c-0.66-1.51-1.56-2.83-2.7-3.95c-1.14-1.12-2.48-2.01-4.01-2.66c-1.54-0.66-3.2-0.99-5-0.99
		c-1.84,0-3.51,0.33-5,0.99c-1.49,0.66-2.76,1.55-3.81,2.66c-1.05,1.12-1.85,2.43-2.4,3.95c-0.55,1.51-0.82,3.12-0.82,4.84
		c0,1.71,0.27,3.32,0.82,4.83c0.55,1.51,1.35,2.83,2.4,3.95c1.05,1.12,2.32,2.01,3.81,2.66c1.49,0.66,3.16,0.99,5,0.99
		c1.8,0,3.46-0.33,5-0.99c1.54-0.66,2.87-1.55,4.01-2.66c1.14-1.12,2.04-2.43,2.7-3.95C1824.77,275.59,1825.1,273.98,1825.1,272.27z
		"/>
	<path class="st0" d="M1846.54,269.7c0-1.45,0.25-2.72,0.76-3.82c0.5-1.1,1.14-2.08,1.91-2.96c0.77-0.88,1.59-1.71,2.47-2.5
		c0.88-0.79,1.7-1.63,2.47-2.53c0.77-0.9,1.4-1.88,1.91-2.93c0.5-1.05,0.76-2.3,0.76-3.75c0-2.37-0.68-4.29-2.04-5.75
		c-1.36-1.47-3.24-2.2-5.66-2.2c-2.33,0-4.22,0.7-5.69,2.1c-1.47,1.4-2.44,3.24-2.93,5.52l-4.28-0.52c0.61-3.38,2.08-6,4.41-7.86
		c2.32-1.86,5.13-2.79,8.42-2.79c1.71,0,3.31,0.25,4.8,0.76c1.49,0.5,2.77,1.24,3.85,2.2c1.07,0.96,1.92,2.15,2.53,3.55
		c0.61,1.4,0.92,3,0.92,4.8c0,1.84-0.26,3.4-0.79,4.67c-0.53,1.27-1.18,2.39-1.97,3.35c-0.79,0.96-1.65,1.85-2.57,2.66
		c-0.92,0.81-1.78,1.65-2.56,2.5c-0.79,0.85-1.45,1.82-1.97,2.89c-0.53,1.07-0.79,2.38-0.79,3.91v4.21h-3.95V269.7z M1845.42,284.7
		c0-0.88,0.31-1.62,0.92-2.23c0.61-0.61,1.36-0.92,2.24-0.92s1.62,0.31,2.24,0.92c0.61,0.61,0.92,1.36,0.92,2.23
		c0,0.88-0.31,1.62-0.92,2.24c-0.61,0.61-1.36,0.92-2.24,0.92s-1.62-0.31-2.24-0.92C1845.73,286.32,1845.42,285.58,1845.42,284.7z"
		/>
	<path d="M1699.68,435.92h3.95v5.33h0.13c0.61-1.05,1.38-1.96,2.3-2.73c0.92-0.77,1.92-1.4,2.99-1.91c1.07-0.5,2.2-0.88,3.39-1.12
		c1.18-0.24,2.35-0.36,3.49-0.36c2.32,0,4.46,0.39,6.41,1.18c1.95,0.79,3.64,1.9,5.06,3.32c1.42,1.43,2.53,3.11,3.32,5.07
		c0.79,1.95,1.18,4.09,1.18,6.41c0,2.32-0.39,4.46-1.18,6.41c-0.79,1.95-1.9,3.64-3.32,5.06c-1.43,1.43-3.11,2.53-5.06,3.32
		c-1.95,0.79-4.09,1.18-6.41,1.18c-1.14,0-2.3-0.12-3.49-0.36c-1.18-0.24-2.31-0.61-3.39-1.12c-1.07-0.5-2.07-1.14-2.99-1.91
		c-0.92-0.77-1.69-1.68-2.3-2.73h-0.13v20.32h-3.95V435.92z M1703.23,451.12c0,1.71,0.33,3.32,0.99,4.83
		c0.66,1.51,1.56,2.83,2.69,3.95c1.14,1.12,2.48,2.01,4.01,2.66c1.54,0.66,3.2,0.99,5,0.99c1.84,0,3.51-0.33,5-0.99
		c1.49-0.66,2.76-1.55,3.82-2.66c1.05-1.12,1.85-2.43,2.4-3.95c0.55-1.51,0.82-3.12,0.82-4.83c0-1.71-0.27-3.32-0.82-4.84
		c-0.55-1.51-1.35-2.83-2.4-3.95c-1.05-1.12-2.33-2.01-3.82-2.66c-1.49-0.66-3.16-0.99-5-0.99c-1.8,0-3.46,0.33-5,0.99
		c-1.54,0.66-2.87,1.55-4.01,2.66c-1.14,1.12-2.04,2.43-2.69,3.95C1703.56,447.8,1703.23,449.41,1703.23,451.12z"/>
	<path d="M1739.87,435.92h3.95v5.33h0.13c0.61-1.05,1.38-1.96,2.3-2.73c0.92-0.77,1.92-1.4,2.99-1.91c1.07-0.5,2.2-0.88,3.39-1.12
		c1.18-0.24,2.35-0.36,3.49-0.36c2.32,0,4.46,0.39,6.41,1.18c1.95,0.79,3.64,1.9,5.06,3.32c1.42,1.43,2.53,3.11,3.32,5.07
		c0.79,1.95,1.18,4.09,1.18,6.41c0,2.32-0.39,4.46-1.18,6.41c-0.79,1.95-1.9,3.64-3.32,5.06c-1.43,1.43-3.11,2.53-5.06,3.32
		c-1.95,0.79-4.09,1.18-6.41,1.18c-1.14,0-2.3-0.12-3.49-0.36c-1.18-0.24-2.31-0.61-3.39-1.12c-1.07-0.5-2.07-1.14-2.99-1.91
		c-0.92-0.77-1.69-1.68-2.3-2.73h-0.13v20.32h-3.95V435.92z M1743.42,451.12c0,1.71,0.33,3.32,0.99,4.83
		c0.66,1.51,1.56,2.83,2.69,3.95c1.14,1.12,2.48,2.01,4.01,2.66c1.54,0.66,3.2,0.99,5,0.99c1.84,0,3.51-0.33,5-0.99
		c1.49-0.66,2.76-1.55,3.82-2.66s1.85-2.43,2.4-3.95c0.55-1.51,0.82-3.12,0.82-4.83c0-1.71-0.27-3.32-0.82-4.84
		c-0.55-1.51-1.35-2.83-2.4-3.95c-1.05-1.12-2.33-2.01-3.82-2.66c-1.49-0.66-3.16-0.99-5-0.99c-1.8,0-3.46,0.33-5,0.99
		c-1.54,0.66-2.87,1.55-4.01,2.66c-1.14,1.12-2.04,2.43-2.69,3.95C1743.75,447.8,1743.42,449.41,1743.42,451.12z"/>
	<path d="M1779.19,451.12c0-2.32,0.39-4.46,1.18-6.41c0.79-1.95,1.88-3.64,3.29-5.07c1.4-1.42,3.09-2.53,5.06-3.32
		c1.97-0.79,4.12-1.18,6.45-1.18c2.32,0,4.46,0.39,6.41,1.18c1.95,0.79,3.64,1.9,5.06,3.32c1.42,1.43,2.53,3.11,3.32,5.07
		c0.79,1.95,1.18,4.09,1.18,6.41c0,2.32-0.39,4.46-1.18,6.41c-0.79,1.95-1.9,3.64-3.32,5.06c-1.43,1.43-3.11,2.53-5.06,3.32
		c-1.95,0.79-4.09,1.18-6.41,1.18c-2.33,0-4.47-0.39-6.45-1.18c-1.97-0.79-3.66-1.9-5.06-3.32c-1.4-1.43-2.5-3.11-3.29-5.06
		C1779.59,455.58,1779.19,453.44,1779.19,451.12z M1783.14,451.12c0,1.71,0.27,3.32,0.82,4.83c0.55,1.51,1.35,2.83,2.4,3.95
		c1.05,1.12,2.32,2.01,3.81,2.66c1.49,0.66,3.16,0.99,5,0.99c1.84,0,3.51-0.33,5-0.99c1.49-0.66,2.76-1.55,3.82-2.66
		c1.05-1.12,1.85-2.43,2.4-3.95c0.55-1.51,0.82-3.12,0.82-4.83c0-1.71-0.27-3.32-0.82-4.84c-0.55-1.51-1.35-2.83-2.4-3.95
		c-1.05-1.12-2.33-2.01-3.82-2.66c-1.49-0.66-3.16-0.99-5-0.99c-1.84,0-3.51,0.33-5,0.99c-1.49,0.66-2.76,1.55-3.81,2.66
		c-1.05,1.12-1.85,2.43-2.4,3.95C1783.41,447.8,1783.14,449.41,1783.14,451.12z"/>
	<path d="M1820.1,463.55c0-0.88,0.3-1.62,0.92-2.23c0.61-0.61,1.36-0.92,2.24-0.92s1.62,0.31,2.24,0.92
		c0.61,0.61,0.92,1.36,0.92,2.23c0,0.88-0.31,1.62-0.92,2.24c-0.61,0.61-1.36,0.92-2.24,0.92s-1.62-0.31-2.24-0.92
		C1820.41,465.17,1820.1,464.43,1820.1,463.55z"/>
	<path d="M1862.52,461.84c-1.49,1.8-3.18,3.12-5.06,3.98c-1.89,0.85-3.93,1.28-6.12,1.28c-2.33,0-4.47-0.39-6.45-1.18
		c-1.97-0.79-3.66-1.9-5.06-3.32c-1.4-1.43-2.5-3.11-3.29-5.06c-0.79-1.95-1.18-4.09-1.18-6.41c0-2.32,0.39-4.46,1.18-6.41
		c0.79-1.95,1.88-3.64,3.29-5.07c1.4-1.42,3.09-2.53,5.06-3.32c1.97-0.79,4.12-1.18,6.45-1.18c2.24,0,4.31,0.46,6.22,1.38
		c1.91,0.92,3.61,2.21,5.1,3.88l-3.16,2.37c-1.14-1.27-2.39-2.27-3.75-2.99c-1.36-0.72-2.83-1.08-4.41-1.08
		c-1.84,0-3.51,0.33-5,0.99c-1.49,0.66-2.76,1.55-3.81,2.66c-1.05,1.12-1.85,2.43-2.4,3.95c-0.55,1.51-0.82,3.12-0.82,4.84
		c0,1.71,0.27,3.32,0.82,4.83c0.55,1.51,1.35,2.83,2.4,3.95c1.05,1.12,2.32,2.01,3.81,2.66c1.49,0.66,3.16,0.99,5,0.99
		c1.67,0,3.19-0.38,4.57-1.15s2.57-1.79,3.58-3.06L1862.52,461.84z"/>
	<path d="M1892.32,453.55c0,1.49,0.01,2.83,0.03,4.01c0.02,1.18,0.06,2.28,0.1,3.29s0.1,1.95,0.16,2.83
		c0.07,0.88,0.16,1.75,0.3,2.63h-3.68c-0.26-1.49-0.39-3.13-0.39-4.93h-0.13c-1.14,1.97-2.56,3.42-4.24,4.34
		c-1.69,0.92-3.83,1.38-6.41,1.38c-1.32,0-2.61-0.16-3.88-0.49c-1.27-0.33-2.41-0.85-3.42-1.58c-1.01-0.72-1.83-1.66-2.47-2.8
		c-0.63-1.14-0.95-2.52-0.95-4.14c0-2.32,0.59-4.17,1.78-5.52c1.18-1.36,2.64-2.38,4.38-3.06c1.73-0.68,3.57-1.12,5.52-1.32
		c1.95-0.2,3.67-0.3,5.16-0.3h4.61v-1.84c0-2.63-0.81-4.51-2.43-5.66c-1.62-1.14-3.66-1.71-6.12-1.71c-3.51,0-6.6,1.14-9.27,3.42
		l-2.3-2.7c1.45-1.4,3.24-2.46,5.39-3.19c2.15-0.72,4.21-1.09,6.18-1.09c3.68,0,6.62,0.87,8.81,2.6s3.29,4.53,3.29,8.39V453.55z
		 M1884.43,451.05c-1.67,0-3.28,0.11-4.83,0.33c-1.56,0.22-2.96,0.59-4.21,1.12c-1.25,0.53-2.25,1.23-2.99,2.11
		c-0.75,0.88-1.12,1.97-1.12,3.29c0,0.92,0.21,1.74,0.62,2.47c0.41,0.72,0.95,1.32,1.61,1.78c0.66,0.46,1.39,0.81,2.2,1.05
		c0.81,0.24,1.63,0.36,2.46,0.36c2.11,0,3.84-0.3,5.2-0.92c1.36-0.61,2.44-1.41,3.26-2.4c0.81-0.99,1.37-2.1,1.68-3.35
		c0.3-1.25,0.46-2.51,0.46-3.78v-2.04H1884.43z"/>
</g>
<rect x="1625.74" y="43.21" class="st5" width="319.97" height="313.85"/>
<linearGradient id="SVGID_1_" gradientUnits="userSpaceOnUse" x1="811.2137" y1="225.0321" x2="1171.9738" y2="225.0321">
	<stop  offset="0" style="stop-color:#244D82"/>
	<stop  offset="0.347" style="stop-color:#35509A"/>
	<stop  offset="1" style="stop-color:#675FA1"/>
</linearGradient>
<rect x="811.21" y="48.1" class="st6" width="360.76" height="353.86"/>
<g>
	<path class="st0" d="M923.17,100.59h4.47l11.58,41.24h0.13l11.77-41.24h5.52l11.77,41.24h0.13l11.58-41.24h4.47l-13.55,46.57h-5.33
		l-11.77-41.44h-0.13l-11.77,41.44h-5.33L923.17,100.59z"/>
	<path class="st0" d="M990.19,97.43h3.95v24.66h0.13c0.79-1.67,2.1-3.1,3.95-4.31c1.84-1.21,3.99-1.81,6.45-1.81
		c2.37,0,4.3,0.37,5.79,1.12c1.49,0.74,2.66,1.72,3.52,2.93c0.85,1.21,1.45,2.6,1.78,4.18c0.33,1.58,0.49,3.2,0.49,4.87v18.09h-3.95
		v-17.89c0-1.23-0.11-2.42-0.33-3.58c-0.22-1.16-0.6-2.2-1.15-3.12c-0.55-0.92-1.32-1.65-2.3-2.2c-0.99-0.55-2.27-0.82-3.85-0.82
		c-1.45,0-2.82,0.25-4.11,0.76c-1.29,0.51-2.41,1.27-3.35,2.3c-0.94,1.03-1.69,2.32-2.24,3.88c-0.55,1.56-0.82,3.39-0.82,5.49v15.19
		h-3.95V97.43z"/>
	<path class="st0" d="M1050.37,134.39c0,1.49,0.01,2.83,0.03,4.01c0.02,1.18,0.06,2.28,0.1,3.29c0.04,1.01,0.1,1.95,0.16,2.83
		s0.16,1.75,0.3,2.63h-3.68c-0.26-1.49-0.39-3.13-0.39-4.93h-0.13c-1.14,1.97-2.56,3.42-4.24,4.34c-1.69,0.92-3.83,1.38-6.41,1.38
		c-1.32,0-2.61-0.16-3.88-0.49c-1.27-0.33-2.41-0.85-3.42-1.58c-1.01-0.72-1.83-1.66-2.47-2.8c-0.63-1.14-0.95-2.52-0.95-4.14
		c0-2.32,0.59-4.17,1.78-5.52c1.18-1.36,2.64-2.38,4.38-3.06c1.73-0.68,3.57-1.12,5.52-1.32c1.95-0.2,3.67-0.3,5.16-0.3h4.61v-1.84
		c0-2.63-0.81-4.51-2.43-5.66c-1.62-1.14-3.66-1.71-6.12-1.71c-3.51,0-6.6,1.14-9.27,3.42l-2.3-2.7c1.45-1.4,3.24-2.46,5.39-3.19
		c2.15-0.72,4.21-1.09,6.18-1.09c3.68,0,6.62,0.87,8.81,2.6c2.19,1.73,3.29,4.53,3.29,8.39V134.39z M1042.47,131.89
		c-1.67,0-3.28,0.11-4.83,0.33c-1.56,0.22-2.96,0.59-4.21,1.12c-1.25,0.53-2.25,1.23-2.99,2.11c-0.75,0.88-1.12,1.97-1.12,3.29
		c0,0.92,0.21,1.74,0.62,2.47c0.41,0.72,0.95,1.32,1.61,1.78c0.66,0.46,1.39,0.81,2.2,1.05c0.81,0.24,1.63,0.36,2.46,0.36
		c2.11,0,3.84-0.3,5.2-0.92s2.44-1.41,3.26-2.4c0.81-0.99,1.37-2.1,1.68-3.35c0.3-1.25,0.46-2.51,0.46-3.78v-2.04H1042.47z"/>
	<path class="st0" d="M1075.75,120.32h-8.68v19.8c0,1.36,0.37,2.41,1.12,3.16c0.74,0.74,1.78,1.12,3.09,1.12
		c0.74,0,1.5-0.1,2.27-0.29c0.77-0.2,1.5-0.45,2.2-0.76l0.33,3.55c-0.75,0.26-1.6,0.5-2.57,0.72c-0.96,0.22-1.82,0.33-2.56,0.33
		c-1.4,0-2.61-0.21-3.62-0.62c-1.01-0.41-1.82-0.98-2.43-1.68c-0.61-0.7-1.06-1.52-1.35-2.47c-0.29-0.94-0.43-1.96-0.43-3.06v-19.8
		h-6.58v-3.55h6.58v-8.75h3.95v8.75h8.68V120.32z"/>
	<path class="st0" d="M1085.82,100.59h4.8l-5.06,15h-3.88L1085.82,100.59z"/>
	<path class="st0" d="M1092.72,139.39c0.83,1.62,2.06,2.86,3.68,3.72c1.62,0.85,3.33,1.28,5.13,1.28c0.83,0,1.67-0.13,2.5-0.39
		c0.83-0.26,1.58-0.63,2.24-1.12c0.66-0.48,1.19-1.06,1.61-1.74c0.42-0.68,0.63-1.46,0.63-2.33c0-1.4-0.45-2.46-1.35-3.16
		c-0.9-0.7-2.01-1.25-3.32-1.65c-1.32-0.39-2.76-0.73-4.34-1.02c-1.58-0.28-3.02-0.72-4.34-1.32s-2.42-1.41-3.32-2.47
		c-0.9-1.05-1.35-2.54-1.35-4.47c0-1.49,0.31-2.78,0.92-3.88c0.61-1.1,1.41-2.01,2.4-2.73c0.99-0.72,2.09-1.26,3.32-1.61
		c1.23-0.35,2.48-0.52,3.75-0.52c2.5,0,4.66,0.46,6.48,1.38c1.82,0.92,3.23,2.37,4.24,4.34l-3.55,2.1c-0.75-1.4-1.68-2.46-2.8-3.19
		c-1.12-0.72-2.58-1.09-4.37-1.09c-0.7,0-1.44,0.11-2.2,0.33c-0.77,0.22-1.46,0.53-2.07,0.92c-0.61,0.39-1.13,0.9-1.55,1.51
		c-0.42,0.61-0.62,1.32-0.62,2.11c0,1.36,0.45,2.37,1.35,3.02c0.9,0.66,2.01,1.17,3.32,1.55c1.32,0.37,2.76,0.69,4.34,0.95
		c1.58,0.26,3.03,0.69,4.34,1.28c1.32,0.59,2.42,1.45,3.32,2.56c0.9,1.12,1.35,2.71,1.35,4.77c0,1.58-0.3,2.95-0.89,4.11
		c-0.59,1.16-1.4,2.14-2.43,2.93c-1.03,0.79-2.2,1.38-3.52,1.78c-1.32,0.39-2.7,0.59-4.15,0.59c-2.63,0-5.03-0.5-7.2-1.51
		c-2.17-1.01-3.85-2.56-5.03-4.67L1092.72,139.39z"/>
	<path class="st0" d="M927.77,174.89c0-0.83,0.28-1.54,0.85-2.11c0.57-0.57,1.27-0.85,2.1-0.85c0.83,0,1.54,0.29,2.11,0.85
		c0.57,0.57,0.85,1.27,0.85,2.11c0,0.83-0.29,1.54-0.85,2.1c-0.57,0.57-1.27,0.85-2.11,0.85c-0.83,0-1.54-0.28-2.1-0.85
		C928.06,176.42,927.77,175.72,927.77,174.89z M928.76,186.92h3.95v30.39h-3.95V186.92z"/>
	<path class="st0" d="M943.88,195.47c0-0.57-0.02-1.26-0.06-2.07c-0.05-0.81-0.08-1.63-0.1-2.47c-0.02-0.83-0.06-1.61-0.1-2.33
		c-0.04-0.72-0.06-1.28-0.06-1.68h3.95c0.04,1.14,0.08,2.24,0.1,3.29c0.02,1.05,0.08,1.73,0.17,2.04h0.2
		c0.79-1.67,2.1-3.1,3.95-4.31c1.84-1.21,3.99-1.81,6.45-1.81c2.37,0,4.3,0.37,5.79,1.12c1.49,0.74,2.66,1.72,3.52,2.93
		c0.85,1.21,1.45,2.6,1.78,4.18c0.33,1.58,0.49,3.2,0.49,4.87v18.09h-3.95v-17.89c0-1.23-0.11-2.42-0.33-3.58
		c-0.22-1.16-0.6-2.2-1.15-3.12c-0.55-0.92-1.32-1.65-2.3-2.2c-0.99-0.55-2.27-0.82-3.85-0.82c-1.45,0-2.82,0.25-4.11,0.76
		c-1.29,0.51-2.41,1.27-3.35,2.3c-0.94,1.03-1.69,2.32-2.24,3.88c-0.55,1.56-0.82,3.39-0.82,5.49v15.19h-3.95V195.47z"/>
	<path class="st0" d="M1006.1,226.71c-0.75,1.97-1.78,3.53-3.09,4.67c-1.32,1.14-3.07,1.71-5.26,1.71c-0.66,0-1.32-0.06-1.97-0.17
		s-1.29-0.25-1.91-0.43l0.39-3.68c0.57,0.17,1.15,0.34,1.74,0.49c0.59,0.15,1.19,0.23,1.81,0.23c0.7,0,1.33-0.16,1.88-0.46
		c0.55-0.31,1.02-0.7,1.41-1.18c0.39-0.48,0.73-1.02,1.02-1.61c0.28-0.59,0.54-1.19,0.76-1.81l2.76-7.04l-12.36-30.52h4.41
		l10.06,25.58l9.8-25.58h4.21L1006.1,226.71z"/>
	<path class="st0" d="M1026.29,202.12c0-2.32,0.39-4.46,1.18-6.41c0.79-1.95,1.88-3.64,3.29-5.07c1.4-1.42,3.09-2.53,5.06-3.32
		c1.97-0.79,4.12-1.18,6.45-1.18c2.32,0,4.46,0.39,6.41,1.18c1.95,0.79,3.64,1.9,5.06,3.32c1.42,1.43,2.53,3.11,3.32,5.07
		c0.79,1.95,1.18,4.09,1.18,6.41s-0.39,4.46-1.18,6.41c-0.79,1.95-1.9,3.64-3.32,5.06c-1.43,1.43-3.11,2.53-5.06,3.32
		c-1.95,0.79-4.09,1.18-6.41,1.18c-2.33,0-4.47-0.39-6.45-1.18c-1.97-0.79-3.66-1.9-5.06-3.32c-1.4-1.43-2.5-3.11-3.29-5.06
		C1026.69,206.58,1026.29,204.44,1026.29,202.12z M1030.24,202.12c0,1.71,0.27,3.32,0.82,4.83s1.35,2.83,2.4,3.94
		c1.05,1.12,2.32,2.01,3.81,2.66c1.49,0.66,3.16,0.99,5,0.99c1.84,0,3.51-0.33,5-0.99c1.49-0.66,2.76-1.55,3.82-2.66
		c1.05-1.12,1.85-2.43,2.4-3.94c0.55-1.51,0.82-3.12,0.82-4.83c0-1.71-0.27-3.32-0.82-4.84c-0.55-1.51-1.35-2.83-2.4-3.95
		c-1.05-1.12-2.33-2.01-3.82-2.66c-1.49-0.66-3.16-0.99-5-0.99c-1.84,0-3.51,0.33-5,0.99c-1.49,0.66-2.76,1.55-3.81,2.66
		c-1.05,1.12-1.85,2.43-2.4,3.95C1030.51,198.8,1030.24,200.41,1030.24,202.12z"/>
	<path class="st0" d="M1092.79,208.76c0,0.57,0.02,1.26,0.07,2.07c0.04,0.81,0.07,1.63,0.1,2.47c0.02,0.83,0.05,1.61,0.1,2.34
		c0.04,0.72,0.06,1.28,0.06,1.68h-3.95c-0.04-1.14-0.08-2.24-0.1-3.29c-0.02-1.05-0.08-1.73-0.16-2.04h-0.2
		c-0.79,1.67-2.1,3.1-3.95,4.31c-1.84,1.21-3.99,1.81-6.45,1.81c-2.37,0-4.31-0.37-5.82-1.12c-1.51-0.74-2.7-1.72-3.55-2.93
		c-0.85-1.21-1.44-2.6-1.74-4.18c-0.31-1.58-0.46-3.2-0.46-4.87v-18.09h3.95v17.89c0,1.23,0.11,2.42,0.33,3.58
		c0.22,1.16,0.6,2.2,1.15,3.12c0.55,0.92,1.32,1.66,2.3,2.2c0.99,0.55,2.27,0.82,3.85,0.82c1.45,0,2.82-0.25,4.11-0.76
		c1.29-0.5,2.41-1.27,3.35-2.3c0.94-1.03,1.69-2.32,2.24-3.88c0.55-1.56,0.82-3.39,0.82-5.49v-15.19h3.95V208.76z"/>
	<path class="st0" d="M1103.64,195.47c0-0.57-0.02-1.26-0.06-2.07c-0.05-0.81-0.08-1.63-0.1-2.47c-0.02-0.83-0.06-1.61-0.1-2.33
		c-0.04-0.72-0.06-1.28-0.06-1.68h3.95c0.04,1.14,0.08,2.24,0.1,3.29c0.02,1.05,0.08,1.73,0.17,2.04c1.01-1.8,2.3-3.27,3.88-4.41
		c1.58-1.14,3.51-1.71,5.79-1.71c0.39,0,0.78,0.03,1.15,0.1c0.37,0.07,0.76,0.14,1.15,0.23l-0.46,3.88
		c-0.53-0.17-1.03-0.26-1.51-0.26c-1.71,0-3.19,0.27-4.44,0.82c-1.25,0.55-2.28,1.3-3.09,2.27c-0.81,0.96-1.41,2.1-1.81,3.39
		c-0.4,1.29-0.59,2.69-0.59,4.18v16.57h-3.95V195.47z"/>
	<path class="st0" d="M930.34,260.63h-6.31v-3.55h6.31v-9.93c0-1.97,0.3-3.61,0.89-4.9c0.59-1.29,1.33-2.33,2.2-3.12
		c0.88-0.79,1.85-1.35,2.93-1.68c1.07-0.33,2.09-0.49,3.06-0.49c1.84,0,3.35,0.26,4.54,0.79l-0.79,3.42
		c-0.88-0.44-2.06-0.66-3.55-0.66c-3.55,0-5.33,2.7-5.33,8.09v8.48h7.1v3.55h-7.1v26.83h-3.95V260.63z"/>
	<path class="st0" d="M945.86,272.27c0-2.32,0.39-4.46,1.18-6.41c0.79-1.95,1.88-3.64,3.29-5.07c1.4-1.42,3.09-2.53,5.06-3.32
		c1.97-0.79,4.12-1.18,6.45-1.18c2.32,0,4.46,0.39,6.41,1.18c1.95,0.79,3.64,1.9,5.06,3.32c1.42,1.43,2.53,3.11,3.32,5.07
		c0.79,1.95,1.18,4.09,1.18,6.41s-0.39,4.46-1.18,6.41c-0.79,1.95-1.9,3.64-3.32,5.06c-1.43,1.43-3.11,2.53-5.06,3.32
		c-1.95,0.79-4.09,1.18-6.41,1.18c-2.33,0-4.47-0.39-6.45-1.18c-1.97-0.79-3.66-1.9-5.06-3.32c-1.4-1.43-2.5-3.11-3.29-5.06
		C946.25,276.73,945.86,274.59,945.86,272.27z M949.8,272.27c0,1.71,0.27,3.32,0.82,4.83c0.55,1.51,1.35,2.83,2.4,3.95
		c1.05,1.12,2.32,2.01,3.81,2.66c1.49,0.66,3.16,0.99,5,0.99c1.84,0,3.51-0.33,5-0.99c1.49-0.66,2.76-1.55,3.82-2.66
		c1.05-1.12,1.85-2.43,2.4-3.95c0.55-1.51,0.82-3.12,0.82-4.83c0-1.71-0.27-3.32-0.82-4.84c-0.55-1.51-1.35-2.83-2.4-3.95
		c-1.05-1.12-2.33-2.01-3.82-2.66c-1.49-0.66-3.16-0.99-5-0.99c-1.84,0-3.51,0.33-5,0.99c-1.49,0.66-2.76,1.55-3.81,2.66
		c-1.05,1.12-1.85,2.43-2.4,3.95C950.08,268.95,949.8,270.56,949.8,272.27z"/>
	<path class="st0" d="M984.92,272.27c0-2.32,0.39-4.46,1.18-6.41c0.79-1.95,1.88-3.64,3.29-5.07c1.4-1.42,3.09-2.53,5.06-3.32
		c1.97-0.79,4.12-1.18,6.45-1.18c2.32,0,4.46,0.39,6.41,1.18c1.95,0.79,3.64,1.9,5.06,3.32c1.42,1.43,2.53,3.11,3.32,5.07
		c0.79,1.95,1.18,4.09,1.18,6.41s-0.39,4.46-1.18,6.41c-0.79,1.95-1.9,3.64-3.32,5.06c-1.43,1.43-3.11,2.53-5.06,3.32
		c-1.95,0.79-4.09,1.18-6.41,1.18c-2.33,0-4.47-0.39-6.45-1.18c-1.97-0.79-3.66-1.9-5.06-3.32c-1.4-1.43-2.5-3.11-3.29-5.06
		C985.32,276.73,984.92,274.59,984.92,272.27z M988.87,272.27c0,1.71,0.27,3.32,0.82,4.83c0.55,1.51,1.35,2.83,2.4,3.95
		c1.05,1.12,2.32,2.01,3.81,2.66c1.49,0.66,3.16,0.99,5,0.99c1.84,0,3.51-0.33,5-0.99c1.49-0.66,2.76-1.55,3.82-2.66
		c1.05-1.12,1.85-2.43,2.4-3.95c0.55-1.51,0.82-3.12,0.82-4.83c0-1.71-0.27-3.32-0.82-4.84c-0.55-1.51-1.35-2.83-2.4-3.95
		c-1.05-1.12-2.33-2.01-3.82-2.66c-1.49-0.66-3.16-0.99-5-0.99c-1.84,0-3.51,0.33-5,0.99c-1.49,0.66-2.76,1.55-3.81,2.66
		c-1.05,1.12-1.85,2.43-2.4,3.95C989.14,268.95,988.87,270.56,988.87,272.27z"/>
	<path class="st0" d="M1052.27,282.14h-0.13c-0.62,1.05-1.38,1.96-2.3,2.73c-0.92,0.77-1.92,1.4-2.99,1.91
		c-1.08,0.5-2.2,0.88-3.39,1.12s-2.35,0.36-3.49,0.36c-2.33,0-4.47-0.39-6.45-1.18c-1.97-0.79-3.66-1.9-5.06-3.32
		c-1.4-1.43-2.5-3.11-3.29-5.06c-0.79-1.95-1.18-4.09-1.18-6.41s0.39-4.46,1.18-6.41c0.79-1.95,1.88-3.64,3.29-5.07
		c1.4-1.42,3.09-2.53,5.06-3.32c1.97-0.79,4.12-1.18,6.45-1.18c1.14,0,2.3,0.12,3.49,0.36c1.18,0.24,2.31,0.61,3.39,1.12
		c1.07,0.5,2.07,1.14,2.99,1.91c0.92,0.77,1.69,1.68,2.3,2.73h0.13v-24.66h3.95v49.72h-3.95V282.14z M1052.67,272.27
		c0-1.71-0.33-3.32-0.99-4.84c-0.66-1.51-1.56-2.83-2.7-3.95c-1.14-1.12-2.48-2.01-4.01-2.66c-1.54-0.66-3.2-0.99-5-0.99
		c-1.84,0-3.51,0.33-5,0.99c-1.49,0.66-2.76,1.55-3.81,2.66c-1.05,1.12-1.85,2.43-2.4,3.95c-0.55,1.51-0.82,3.12-0.82,4.84
		c0,1.71,0.27,3.32,0.82,4.83c0.55,1.51,1.35,2.83,2.4,3.95c1.05,1.12,2.32,2.01,3.81,2.66c1.49,0.66,3.16,0.99,5,0.99
		c1.8,0,3.46-0.33,5-0.99c1.54-0.66,2.87-1.55,4.01-2.66c1.14-1.12,2.04-2.43,2.7-3.95
		C1052.34,275.59,1052.67,273.98,1052.67,272.27z"/>
	<path class="st0" d="M1074.1,269.7c0-1.45,0.25-2.72,0.76-3.82c0.5-1.1,1.14-2.08,1.91-2.96c0.77-0.88,1.59-1.71,2.47-2.5
		c0.88-0.79,1.7-1.63,2.47-2.53c0.77-0.9,1.4-1.88,1.91-2.93c0.5-1.05,0.76-2.3,0.76-3.75c0-2.37-0.68-4.29-2.04-5.75
		c-1.36-1.47-3.24-2.2-5.66-2.2c-2.33,0-4.22,0.7-5.69,2.1c-1.47,1.4-2.44,3.24-2.93,5.52l-4.28-0.52c0.61-3.38,2.08-6,4.41-7.86
		c2.32-1.86,5.13-2.79,8.42-2.79c1.71,0,3.31,0.25,4.8,0.76c1.49,0.5,2.77,1.24,3.85,2.2c1.07,0.96,1.92,2.15,2.53,3.55
		c0.61,1.4,0.92,3,0.92,4.8c0,1.84-0.26,3.4-0.79,4.67c-0.53,1.27-1.18,2.39-1.97,3.35c-0.79,0.96-1.65,1.85-2.57,2.66
		c-0.92,0.81-1.78,1.65-2.56,2.5c-0.79,0.85-1.45,1.82-1.97,2.89c-0.53,1.07-0.79,2.38-0.79,3.91v4.21h-3.95V269.7z M1072.99,284.7
		c0-0.88,0.31-1.62,0.92-2.23c0.61-0.61,1.36-0.92,2.24-0.92s1.62,0.31,2.24,0.92c0.61,0.61,0.92,1.36,0.92,2.23
		c0,0.88-0.31,1.62-0.92,2.24c-0.61,0.61-1.36,0.92-2.24,0.92s-1.62-0.31-2.24-0.92C1073.29,286.32,1072.99,285.58,1072.99,284.7z"
		/>
	<path d="M927.25,435.92h3.95v5.33h0.13c0.61-1.05,1.38-1.96,2.3-2.73c0.92-0.77,1.92-1.4,2.99-1.91c1.07-0.5,2.2-0.88,3.39-1.12
		c1.18-0.24,2.35-0.36,3.49-0.36c2.32,0,4.46,0.39,6.41,1.18c1.95,0.79,3.64,1.9,5.06,3.32c1.42,1.43,2.53,3.11,3.32,5.07
		c0.79,1.95,1.18,4.09,1.18,6.41c0,2.32-0.39,4.46-1.18,6.41c-0.79,1.95-1.9,3.64-3.32,5.06c-1.43,1.43-3.11,2.53-5.06,3.32
		c-1.95,0.79-4.09,1.18-6.41,1.18c-1.14,0-2.3-0.12-3.49-0.36c-1.18-0.24-2.31-0.61-3.39-1.12c-1.07-0.5-2.07-1.14-2.99-1.91
		c-0.92-0.77-1.69-1.68-2.3-2.73h-0.13v20.32h-3.95V435.92z M930.8,451.12c0,1.71,0.33,3.32,0.99,4.83
		c0.66,1.51,1.56,2.83,2.69,3.95c1.14,1.12,2.48,2.01,4.01,2.66c1.54,0.66,3.2,0.99,5,0.99c1.84,0,3.51-0.33,5-0.99
		c1.49-0.66,2.76-1.55,3.82-2.66s1.85-2.43,2.4-3.95c0.55-1.51,0.82-3.12,0.82-4.83c0-1.71-0.27-3.32-0.82-4.84
		c-0.55-1.51-1.35-2.83-2.4-3.95c-1.05-1.12-2.33-2.01-3.82-2.66c-1.49-0.66-3.16-0.99-5-0.99c-1.8,0-3.46,0.33-5,0.99
		c-1.54,0.66-2.87,1.55-4.01,2.66c-1.14,1.12-2.04,2.43-2.69,3.95C931.13,447.8,930.8,449.41,930.8,451.12z"/>
	<path d="M967.43,435.92h3.95v5.33h0.13c0.61-1.05,1.38-1.96,2.3-2.73c0.92-0.77,1.92-1.4,2.99-1.91c1.07-0.5,2.2-0.88,3.39-1.12
		c1.18-0.24,2.35-0.36,3.49-0.36c2.32,0,4.46,0.39,6.41,1.18c1.95,0.79,3.64,1.9,5.06,3.32c1.42,1.43,2.53,3.11,3.32,5.07
		c0.79,1.95,1.18,4.09,1.18,6.41c0,2.32-0.39,4.46-1.18,6.41c-0.79,1.95-1.9,3.64-3.32,5.06c-1.43,1.43-3.11,2.53-5.06,3.32
		c-1.95,0.79-4.09,1.18-6.41,1.18c-1.14,0-2.3-0.12-3.49-0.36c-1.18-0.24-2.31-0.61-3.39-1.12c-1.07-0.5-2.07-1.14-2.99-1.91
		c-0.92-0.77-1.69-1.68-2.3-2.73h-0.13v20.32h-3.95V435.92z M970.98,451.12c0,1.71,0.33,3.32,0.99,4.83
		c0.66,1.51,1.56,2.83,2.69,3.95c1.14,1.12,2.48,2.01,4.01,2.66c1.54,0.66,3.2,0.99,5,0.99c1.84,0,3.51-0.33,5-0.99
		c1.49-0.66,2.76-1.55,3.82-2.66s1.85-2.43,2.4-3.95c0.55-1.51,0.82-3.12,0.82-4.83c0-1.71-0.27-3.32-0.82-4.84
		c-0.55-1.51-1.35-2.83-2.4-3.95c-1.05-1.12-2.33-2.01-3.82-2.66c-1.49-0.66-3.16-0.99-5-0.99c-1.8,0-3.46,0.33-5,0.99
		c-1.54,0.66-2.87,1.55-4.01,2.66c-1.14,1.12-2.04,2.43-2.69,3.95C971.31,447.8,970.98,449.41,970.98,451.12z"/>
	<path d="M1006.76,451.12c0-2.32,0.39-4.46,1.18-6.41c0.79-1.95,1.88-3.64,3.29-5.07c1.4-1.42,3.09-2.53,5.06-3.32
		c1.97-0.79,4.12-1.18,6.45-1.18c2.32,0,4.46,0.39,6.41,1.18c1.95,0.79,3.64,1.9,5.06,3.32c1.42,1.43,2.53,3.11,3.32,5.07
		c0.79,1.95,1.18,4.09,1.18,6.41c0,2.32-0.39,4.46-1.18,6.41c-0.79,1.95-1.9,3.64-3.32,5.06c-1.43,1.43-3.11,2.53-5.06,3.32
		c-1.95,0.79-4.09,1.18-6.41,1.18c-2.33,0-4.47-0.39-6.45-1.18c-1.97-0.79-3.66-1.9-5.06-3.32c-1.4-1.43-2.5-3.11-3.29-5.06
		C1007.15,455.58,1006.76,453.44,1006.76,451.12z M1010.71,451.12c0,1.71,0.27,3.32,0.82,4.83c0.55,1.51,1.35,2.83,2.4,3.95
		c1.05,1.12,2.32,2.01,3.81,2.66c1.49,0.66,3.16,0.99,5,0.99c1.84,0,3.51-0.33,5-0.99c1.49-0.66,2.76-1.55,3.82-2.66
		s1.85-2.43,2.4-3.95c0.55-1.51,0.82-3.12,0.82-4.83c0-1.71-0.27-3.32-0.82-4.84c-0.55-1.51-1.35-2.83-2.4-3.95
		c-1.05-1.12-2.33-2.01-3.82-2.66c-1.49-0.66-3.16-0.99-5-0.99c-1.84,0-3.51,0.33-5,0.99c-1.49,0.66-2.76,1.55-3.81,2.66
		c-1.05,1.12-1.85,2.43-2.4,3.95C1010.98,447.8,1010.71,449.41,1010.71,451.12z"/>
	<path d="M1047.67,463.55c0-0.88,0.3-1.62,0.92-2.23c0.61-0.61,1.36-0.92,2.24-0.92s1.62,0.31,2.24,0.92
		c0.61,0.61,0.92,1.36,0.92,2.23c0,0.88-0.31,1.62-0.92,2.24c-0.61,0.61-1.36,0.92-2.24,0.92s-1.62-0.31-2.24-0.92
		C1047.97,465.17,1047.67,464.43,1047.67,463.55z"/>
	<path d="M1090.09,461.84c-1.49,1.8-3.18,3.12-5.06,3.98c-1.89,0.85-3.93,1.28-6.12,1.28c-2.33,0-4.47-0.39-6.45-1.18
		c-1.97-0.79-3.66-1.9-5.06-3.32c-1.4-1.43-2.5-3.11-3.29-5.06c-0.79-1.95-1.18-4.09-1.18-6.41c0-2.32,0.39-4.46,1.18-6.41
		c0.79-1.95,1.88-3.64,3.29-5.07c1.4-1.42,3.09-2.53,5.06-3.32c1.97-0.79,4.12-1.18,6.45-1.18c2.24,0,4.31,0.46,6.22,1.38
		c1.91,0.92,3.61,2.21,5.1,3.88l-3.16,2.37c-1.14-1.27-2.39-2.27-3.75-2.99c-1.36-0.72-2.83-1.08-4.41-1.08
		c-1.84,0-3.51,0.33-5,0.99c-1.49,0.66-2.76,1.55-3.81,2.66c-1.05,1.12-1.85,2.43-2.4,3.95c-0.55,1.51-0.82,3.12-0.82,4.84
		c0,1.71,0.27,3.32,0.82,4.83c0.55,1.51,1.35,2.83,2.4,3.95c1.05,1.12,2.32,2.01,3.81,2.66c1.49,0.66,3.16,0.99,5,0.99
		c1.67,0,3.19-0.38,4.57-1.15c1.38-0.77,2.57-1.79,3.58-3.06L1090.09,461.84z"/>
	<path d="M1119.88,453.55c0,1.49,0.01,2.83,0.03,4.01c0.02,1.18,0.06,2.28,0.1,3.29s0.1,1.95,0.16,2.83
		c0.07,0.88,0.16,1.75,0.3,2.63h-3.68c-0.26-1.49-0.39-3.13-0.39-4.93h-0.13c-1.14,1.97-2.56,3.42-4.24,4.34
		c-1.69,0.92-3.83,1.38-6.41,1.38c-1.32,0-2.61-0.16-3.88-0.49c-1.27-0.33-2.41-0.85-3.42-1.58c-1.01-0.72-1.83-1.66-2.47-2.8
		c-0.63-1.14-0.95-2.52-0.95-4.14c0-2.32,0.59-4.17,1.78-5.52c1.18-1.36,2.64-2.38,4.38-3.06c1.73-0.68,3.57-1.12,5.52-1.32
		c1.95-0.2,3.67-0.3,5.16-0.3h4.61v-1.84c0-2.63-0.81-4.51-2.43-5.66c-1.62-1.14-3.66-1.71-6.12-1.71c-3.51,0-6.6,1.14-9.27,3.42
		l-2.3-2.7c1.45-1.4,3.24-2.46,5.39-3.19c2.15-0.72,4.21-1.09,6.18-1.09c3.68,0,6.62,0.87,8.81,2.6c2.19,1.73,3.29,4.53,3.29,8.39
		V453.55z M1111.99,451.05c-1.67,0-3.28,0.11-4.83,0.33c-1.56,0.22-2.96,0.59-4.21,1.12c-1.25,0.53-2.25,1.23-2.99,2.11
		c-0.75,0.88-1.12,1.97-1.12,3.29c0,0.92,0.21,1.74,0.62,2.47c0.41,0.72,0.95,1.32,1.61,1.78c0.66,0.46,1.39,0.81,2.2,1.05
		c0.81,0.24,1.63,0.36,2.46,0.36c2.11,0,3.84-0.3,5.2-0.92s2.44-1.41,3.26-2.4c0.81-0.99,1.37-2.1,1.68-3.35
		c0.3-1.25,0.46-2.51,0.46-3.78v-2.04H1111.99z"/>
</g>
<rect x="853.31" y="43.21" class="st5" width="319.97" height="313.85"/>
</svg>
